<?xml version="1.0" encoding="UTF-8"?>
<svg id="Layer_2" data-name="Layer 2" xmlns="http://www.w3.org/2000/svg" viewBox="0 0 1451.97 1390.22">
  <defs>
    <style>
      .cls-1 {
        fill: #dad9d9;
      }

      .cls-2 {
        fill: #7f7f7f;
      }
    </style>
  </defs>
  <g id="Layer_1-2" data-name="Layer 1">
    <g>
      <path class="cls-1" d="M736.41,605.89c-.29,0-.58,0-.86-.03-5.28-.49-21.9-9.97-31.18-18.49-.08-.12-.16-.24-.25-.36-2.44-3.53-6.99-10.09-15.48-12.38-1.73-.47-3.55-.71-5.39-.71-2.17,0-3.99.32-5.9.67-4.56-2.99-12.43-8.75-18.28-13.33-.21-.22-.42-.46-.64-.69-1.81-1.98-4.54-4.96-8.62-7.18-4.59-2.5-8.87-2.73-11.81-2.82-.05-.06-.1-.12-.15-.18-1.73-2.07-4.34-5.19-8.59-7.55-4.55-2.52-8.97-2.81-11.9-2.81-.73,0-1.51.02-2.32.05-3.2-1.41-10.21-5.34-25.46-15.37l-1.51-.99c-.79-.52-3.51-2.57-5.3-3.92-8.73-6.58-11.97-8.93-16.18-10.29-2.52-.81-5.15-1.21-8.06-1.21-1.61,0-3.06.12-4.23.22-2.29-1.39-4.52-2.71-6.69-4-21.79-12.93-28.73-17.91-29.86-36.52-1.46-24.09,16.28-70.38,28.01-101.02,3.39-8.85,6.59-17.21,9.16-24.45.82-2.3,1.73-4.77,2.67-7.32,2.73-7.4,5.83-15.78,7.74-23.15l.13-.46c.14-.5.3-1.1.47-1.73,2.18-8.26.07-16.96-5.38-23.29,7.39-1.79,13.79-6.81,17.17-13.8,6.57-13.62,12.04-27.58,17.32-41.08,7.23-18.47,14.06-35.92,23.35-52.08,32.97-57.38,78.65-101.32,132.09-127.07,17.54-8.45,31.38-12.56,42.32-12.56s18.99,4.05,26.04,13.13c.99,1.27,2.21,3.13,3.5,5.1,1.44,2.2,3.07,4.69,4.91,7.17.52.71.88,1.22,1.12,1.58.01.15.03.3.04.43.13,1.52.31,3.59.72,6.26,1.21,7.87,6.11,13.3,10.05,17.66.47.53,1.17,1.3,1.47,1.66,15.39,21.93,4.62,44.22-14.94,78.28-2.57,4.48-5.23,9.11-7.72,13.67-5.14,9.43-3.85,21.18,3.22,29.23,4,4.56,2.81,5.82,1.3,7.42-7.82,8.28-9.32,20.91-3.63,30.73.67,1.16.38,3.9-.9,5.33-8.38,9.36-8.79,23.28-.98,33.09,1.5,1.88,1.74,4.58.54,5.91-8.97,9.84-8.96,25.11.02,34.78,3,3.22,2.62,5.23.87,7.8-3.9,5.75-5.32,12.65-3.99,19.45,1.32,6.76,5.21,12.6,10.94,16.43.93.62,1.86,1.22,2.77,1.81,3.72,2.4,5.56,3.64,6.91,5.5q.9,1.25,1.48,3.96c.48,2.23,1.14,5.28,2.49,8.95,4.49,12.17,13.36,18.34,26.35,18.35.33,0,.76,0,.99,0,1.57.35,3.19,1.26,4.07,1.98,1.03,8.93,6.58,16.8,14.79,20.6,5.53,2.56,15.63,9.18,14.28,15.93-.51,2.54-1.9,5.18-3.19,6.69-2.85,1.2-7.54,3.53-10.84,8.73-3.07,4.84-3.48,9.79-3.77,13.4-.02.22-.03.44-.05.64-3.43,10.66-21.12,24.49-45.54,35.5-4.85,2.19-9.68,3.51-15.05,4.9-5.78,1.49-10.89,4.97-14.39,9.8-2.97,4.09-6.19,8.81-9.61,13.8-9.13,13.35-20.49,29.97-32.49,42.5-14.04,14.67-23.07,17.75-28.17,17.75Z"/>
      <path class="cls-2" d="M792.8,60c4.19,0,6.66.78,10.25,5.4.49.63,1.68,2.45,2.55,3.78.99,1.51,2.13,3.25,3.41,5.1.1.76.21,1.57.34,2.43,2.12,13.79,10.16,22.71,14.97,28.03.15.17.33.37.5.55,3.04,4.58,4.21,8.91,2.15,17.17-2.84,11.38-10.86,25.35-18.62,38.86-2.62,4.57-5.34,9.29-7.93,14.04-7.46,13.67-7.3,30.09-.16,43.47-2.3,4.59-3.82,9.57-4.48,14.78-.8,6.29-.27,12.7,1.51,18.75-7.21,12.73-7.84,28.14-1.77,41.38-2.97,6-4.62,12.61-4.76,19.4-.18,8.56,2.01,16.84,6.27,24.05-3.11,7.99-3.91,16.7-2.23,25.32,2.35,12.04,9.27,22.42,19.47,29.23,1.01.68,2.02,1.33,3.02,1.97.15.1.31.2.47.3.56,2.27,1.34,5.09,2.5,8.22,5.44,14.74,14.93,22.3,21.94,26.04,4.53,2.42,8.89,3.75,12.66,4.48,3.8,7.85,9.79,14.56,17.38,19.19-1.27,1.46-2.5,3.09-3.66,4.91-4.63,7.28-5.98,14.4-6.54,19.36-3.04,4.18-13.71,13.45-34.17,22.69-3.11,1.4-6.42,2.37-11.82,3.76-10.27,2.65-19.36,8.84-25.58,17.42-3.13,4.32-6.43,9.15-9.93,14.26-8.24,12.05-17.58,25.71-27.39,36.67-8.33,9.32-13.72,12.92-16.21,14.24-4.94-2.29-12.75-7.31-17.59-11.34-3.86-5.39-11.58-14.84-25.5-18.59-3.44-.93-7.01-1.4-10.61-1.4-.2,0-.41,0-.6,0-3.13-2.25-6.74-4.93-9.97-7.43-2.48-2.69-6.76-7.12-13.3-10.69-4.24-2.31-8.32-3.58-11.85-4.3-2.26-2.06-5.1-4.26-8.58-6.19-5.77-3.2-12.02-4.92-19.05-5.25-3.48-1.95-9.38-5.54-19.34-12.09l-1.32-.87c-.81-.57-2.99-2.21-4.45-3.31-9.31-7.02-14.45-10.88-22.07-13.35-4.18-1.35-8.63-2.08-13.25-2.16-.56-.33-1.11-.66-1.66-.99-7.65-4.54-14.88-8.83-17.81-12.09-.67-.74-1.91-2.12-2.29-8.43-.26-4.33.34-15.06,7.33-38.21,5.44-18.02,12.85-37.37,19.39-54.44,3.44-8.97,6.68-17.44,9.33-24.93.75-2.13,1.64-4.53,2.58-7.07,2.88-7.79,6.14-16.61,8.3-24.91l.08-.29c.16-.57.35-1.25.54-1.97,1.77-6.73,1.95-13.62.69-20.19,3.98-3.75,7.32-8.24,9.76-13.3,6.9-14.31,12.51-28.63,17.93-42.48,6.95-17.76,13.52-34.54,22.06-49.41,30.96-53.87,73.64-95.03,123.43-119.02,14.57-7.02,25.89-10.58,33.64-10.58M792.8,20c-16.83,0-34.64,6.66-51,14.54-60.18,29-107.67,77.55-140.75,135.13-17.21,29.95-26.4,63.46-41.34,94.43-.98,2.04-3.01,3.2-5.12,3.2-.95,0-1.91-.24-2.8-.74-11.46-6.44-24.79-10.6-37.9-10.6-10.02,0-19.91,2.44-28.71,8.15-21.46,13.94-23.96,37.7-35.09,58.1-5.71,10.47-15.99,26.2-25.02,33.71-5.49,4.57-24.4,12.25-26.25,16.8-1.56,3.86,2.73,10.34,7.05,10.96.2.03.42.04.64.04,6.63,0,22.49-12.21,29.16-15.09,3.7-1.6,6.63-.48,10.61-1.99,10.83-4.13,23.28-16.02,29.22-25.74,10.51-17.2,11.82-44.84,33.41-52.93,2.83-1.06,5.64-1.53,8.4-1.53,9.99,0,19.38,6.14,27.32,12.45,1.76,1.4,2.53,3.7,1.96,5.88-.25.96-.51,1.83-.62,2.28-2.26,8.75-6.77,19.98-9.89,28.79-12.36,34.86-40.43,97.8-38.28,133.36,2.06,34.14,23.01,42.12,48.51,57.86,2.02,1.24,4.22,1.56,6.33,1.56s4.23-.33,5.9-.33c.72,0,1.37.06,1.91.24,1.98.64,13.33,9.72,16.67,11.91,7.27,4.77,26.87,17.86,34.35,19.53.54.12,1.23.16,1.99.16,1.26,0,2.71-.1,3.92-.1.97,0,1.78.07,2.21.3,2.55,1.41,4.47,6.29,10.07,8.93,3.94,1.86,9.12.88,10.61,1.69,2.01,1.1,4,4.11,6.06,5.72,4.5,3.53,22.67,17.39,26.77,18.27.43.09.95.13,1.51.13,3.05,0,7.54-1.15,8.66-1.15.08,0,.14,0,.18.02,2.22.6,4.6,5.5,6.28,7.1,9.25,8.87,31.63,23.91,44.5,24.77.73.05,1.46.07,2.19.07,35.28,0,67.61-56.32,86.46-82.31.78-1.08,1.91-1.84,3.2-2.18,6.29-1.62,12.09-3.24,18.27-6.03,20.15-9.09,51-26.75,56.9-49.49.47-1.8.4-6.42,1.12-7.56.54-.85,3.74-1.59,5.13-2.63,5.97-4.51,10.2-12.37,11.64-19.61,3.5-17.55-10.68-31.12-25.5-37.98-2.15-1-3.39-3.18-3.36-5.55,0-.14,0-.28-.02-.41-1.05-9.54-11.38-16.37-20.15-18.11-6.17-1.23-9.56,1.78-12.3-5.63-2.48-6.71-1.37-10.55-6.52-17.68-4.28-5.94-9.46-8.69-14.79-12.24-2.66-1.77-3.31-5.36-1.51-8,7.36-10.83,6.13-23.08-2.77-32.65-2.01-2.16-1.89-5.51.1-7.69,8.02-8.8,7.84-22.41.33-31.84-1.7-2.14-1.59-5.25.23-7.29,6.85-7.65,8.47-19.79,3.31-28.7-1.29-2.23-.91-5.09.87-6.97,9.97-10.56,8.74-23.47-.81-34.34-1.57-1.79-1.84-4.37-.7-6.46,19.19-35.16,48.8-74.43,21.3-113.26-1.97-2.78-7.5-7.71-7.95-10.62-1.26-8.23.37-9.14-5.58-17.16-3.14-4.24-5.85-8.98-8.68-12.63-11.88-15.29-26.45-20.86-41.83-20.86h0Z"/>
    </g>
    <g>
      <path class="cls-1" d="M1001.23,874.65c-.46,0-.93-.05-1.44-.15-2.54-.51-5.19-1.9-6.69-3.19-1.2-2.85-3.53-7.53-8.73-10.84-4.84-3.08-9.79-3.48-13.41-3.78-.22-.02-.43-.03-.64-.05-10.65-3.42-24.48-21.12-35.5-45.54-2.19-4.85-3.51-9.68-4.9-15.05-1.49-5.78-4.97-10.89-9.8-14.39-4.09-2.97-8.81-6.19-13.8-9.61-13.69-9.36-30.74-21.01-43.37-33.32-11.51-11.21-17.33-20.96-16.85-28.19.49-5.28,9.97-21.9,18.49-31.18.12-.08.24-.16.36-.25,3.52-2.44,10.09-6.99,12.37-15.47,1.23-4.56.58-8.29.04-11.29,2.99-4.56,8.75-12.43,13.33-18.28.22-.21.46-.42.69-.64,1.98-1.81,4.96-4.54,7.18-8.62,2.5-4.59,2.73-8.88,2.82-11.81.06-.05.12-.1.18-.15,2.07-1.73,5.19-4.34,7.55-8.59,2.99-5.39,2.89-10.64,2.76-14.22,1.41-3.2,5.34-10.21,15.37-25.46l1-1.52c.52-.79,2.57-3.5,3.92-5.3,6.58-8.74,8.93-11.97,10.29-16.18,1.6-4.95,1.23-9.37.99-12.29,1.39-2.29,2.71-4.52,4-6.69,12.93-21.79,17.91-28.73,36.52-29.86.88-.05,1.83-.08,2.8-.08,24.88,0,67.27,16.24,98.21,28.09,8.85,3.39,17.21,6.59,24.45,9.16,2.3.82,4.77,1.73,7.32,2.67,7.4,2.73,15.78,5.83,23.15,7.74l.46.13c.5.14,1.1.3,1.72.47,2.13.56,4.33.85,6.54.85,6.24,0,12.14-2.22,16.76-6.21.14.58.3,1.16.48,1.74,2.12,6.73,6.98,12.35,13.33,15.42,13.62,6.57,27.58,12.04,41.08,17.32,18.47,7.23,35.92,14.06,52.08,23.35,57.38,32.97,101.32,78.65,127.07,132.09,20.93,43.43,12.09,58.52-.57,68.36-1.27.99-3.13,2.21-5.09,3.49-2.2,1.44-4.69,3.07-7.17,4.92-.71.52-1.22.88-1.58,1.12-.15.01-.3.03-.43.04-1.51.13-3.59.31-6.26.72-7.87,1.21-13.3,6.11-17.67,10.05-.53.48-1.3,1.18-1.66,1.47-7.15,5.02-14.19,7.36-22.14,7.36-17.31,0-37.05-11.33-56.14-22.3-4.48-2.57-9.11-5.23-13.67-7.72-3.76-2.06-8.03-3.14-12.32-3.14-6.23,0-12.24,2.26-16.92,6.37-2.5,2.19-4.33,2.78-5.02,2.78-.51,0-1.43-.57-2.4-1.47-4.84-4.58-11.18-7.09-17.83-7.09-4.53,0-8.99,1.2-12.89,3.46-.37.21-1,.34-1.69.34-1.35,0-2.81-.5-3.65-1.24-4.71-4.22-10.8-6.54-17.14-6.54-5.78,0-11.44,1.98-15.95,5.56-1.04.83-2.36,1.3-3.62,1.3-.96,0-1.73-.26-2.29-.77-4.79-4.37-10.99-6.77-17.45-6.77s-12.62,2.41-17.33,6.8c-.89.83-2.64,2.22-4.31,2.22-1.25,0-2.59-.73-3.5-1.35-4.3-2.92-9.32-4.47-14.51-4.47-8.61,0-16.59,4.27-21.37,11.42-.62.93-1.22,1.85-1.81,2.77-2.4,3.72-3.64,5.56-5.5,6.91q-1.25.9-3.96,1.48c-2.23.48-5.28,1.14-8.95,2.49-12.17,4.49-18.34,13.36-18.35,26.35,0,.33,0,.76,0,.99-.35,1.57-1.26,3.19-1.98,4.07-8.93,1.03-16.81,6.61-20.6,14.79-3.87,8.36-9.96,14.43-14.48,14.43ZM1039.46,845.26s.24,0,.24,0h-.24Z"/>
      <path class="cls-2" d="M986.76,512.67c21.18,0,63.23,16.11,91.05,26.77,8.97,3.44,17.45,6.68,24.93,9.34,2.13.75,4.53,1.64,7.07,2.58,7.79,2.88,16.61,6.14,24.91,8.29l.29.08c.57.16,1.26.35,1.99.54,3.79,1,7.7,1.5,11.61,1.5,2.91,0,5.77-.27,8.56-.8,3.78,4,8.28,7.32,13.31,9.75,14.31,6.9,28.63,12.51,42.48,17.93,17.76,6.95,34.54,13.52,49.41,22.06,53.87,30.96,95.03,73.64,119.02,123.43,6.75,14.01,10.31,25.05,10.56,32.8.16,4.75-.56,7.34-5.39,11.09-.64.49-2.45,1.69-3.78,2.56-1.5.99-3.25,2.13-5.1,3.41-.76.1-1.57.21-2.43.34-13.79,2.11-22.71,10.16-28.04,14.97-.16.15-.35.32-.53.48-4.27,2.8-7.37,3.2-9.86,3.2-11.97,0-30.15-10.44-46.18-19.64-4.57-2.62-9.3-5.34-14.05-7.93-6.7-3.66-14.27-5.59-21.89-5.59-7.59,0-15,1.89-21.59,5.42-6.32-3.17-13.34-4.85-20.58-4.85-4.4,0-8.77.64-12.96,1.88-6.79-3.82-14.48-5.86-22.4-5.86-6.54,0-13.01,1.42-18.91,4.11-6.29-3.12-13.25-4.78-20.39-4.78-8.22,0-16.16,2.19-23.1,6.29-5.24-2.03-10.83-3.09-16.54-3.09-15.3,0-29.51,7.6-38,20.32-.68,1.01-1.33,2.02-1.98,3.02-.1.15-.2.31-.3.47-2.27.56-5.09,1.34-8.22,2.5-14.75,5.44-22.3,14.93-26.05,21.94-2.43,4.54-3.76,8.9-4.49,12.68-7.85,3.81-14.56,9.79-19.18,17.36-1.46-1.27-3.09-2.51-4.91-3.66-7.28-4.63-14.4-5.98-19.36-6.54-4.18-3.04-13.45-13.71-22.68-34.17-1.4-3.11-2.37-6.42-3.76-11.82-2.65-10.27-8.84-19.35-17.42-25.58-4.32-3.13-9.15-6.43-14.26-9.93-12.05-8.24-25.71-17.58-36.67-27.39-9.32-8.33-12.92-13.72-14.24-16.21,2.29-4.94,7.31-12.75,11.34-17.59,5.39-3.86,14.84-11.58,18.59-25.5,1.12-4.15,1.44-7.94,1.39-11.2,2.32-3.23,5.06-6.91,7.43-9.98,2.69-2.48,7.12-6.76,10.68-13.29,2.31-4.24,3.59-8.32,4.3-11.85,2.06-2.26,4.26-5.1,6.18-8.57,3.94-7.11,5.03-13.93,5.26-19.06,1.95-3.49,5.54-9.38,12.09-19.34l.87-1.32c.57-.81,2.21-2.99,3.31-4.44,7.02-9.31,10.88-14.45,13.35-22.07,1.59-4.94,2.09-9.52,2.16-13.24.33-.56.66-1.12.99-1.67,4.54-7.65,8.83-14.88,12.09-17.81.74-.67,2.12-1.91,8.43-2.29.48-.03,1.02-.04,1.6-.04M1077.43,373.48c-3.8,0-8.63,3.68-9.16,7.38-.89,6.18,12.07,22.91,15.05,29.8,1.6,3.7.48,6.63,1.99,10.61,4.13,10.83,16.02,23.28,25.74,29.22,17.2,10.51,44.84,11.82,52.93,33.41,4.91,13.1-2.87,25.58-10.93,35.71-1.09,1.37-2.74,2.14-4.44,2.14-.48,0-.96-.06-1.44-.19-.96-.25-1.83-.51-2.28-.62-8.75-2.26-19.98-6.77-28.79-9.89-33.59-11.9-93.23-38.4-129.35-38.4-1.37,0-2.71.04-4.01.12-34.14,2.06-42.12,23.01-57.86,48.51-3.07,4.98-.48,11.09-1.47,14.14-.64,1.98-9.72,13.33-11.91,16.67-4.77,7.27-17.86,26.87-19.53,34.35-.48,2.14.36,6.83-.36,8.12-1.41,2.55-6.29,4.47-8.93,10.07-1.86,3.94-.88,9.12-1.69,10.61-1.1,2.02-4.11,4-5.72,6.06-3.53,4.5-17.39,22.67-18.27,26.77-.63,2.94,1.21,9.57,1,10.35-.6,2.22-5.5,4.6-7.1,6.28-8.87,9.25-23.91,31.63-24.77,44.5-2.41,36.13,55.71,69.41,82.24,88.65,1.08.78,1.84,1.91,2.18,3.2,1.62,6.29,3.24,12.09,6.03,18.27,9.09,20.15,26.75,51,49.49,56.9,1.8.47,6.42.4,7.56,1.12.85.54,1.59,3.74,2.63,5.13,4.51,5.97,12.37,10.2,19.61,11.64,1.83.36,3.61.54,5.35.54,14.95,0,26.49-12.76,32.63-26.03.98-2.13,3.12-3.36,5.46-3.36.03,0,.06,0,.09,0,.02,0,.03,0,.05,0,.12,0,.24,0,.37-.02,9.54-1.05,16.37-11.38,18.11-20.15,1.23-6.17-1.78-9.56,5.63-12.3,6.71-2.48,10.55-1.37,17.68-6.52,5.94-4.28,8.69-9.46,12.24-14.79,1.1-1.65,2.89-2.52,4.73-2.52,1.13,0,2.27.33,3.27,1.01,4.75,3.23,9.78,4.8,14.73,4.8,6.33,0,12.55-2.58,17.92-7.57,1.05-.98,2.38-1.45,3.72-1.45,1.42,0,2.85.53,3.97,1.55,4.42,4.03,10.05,5.99,15.76,5.99s11.38-1.92,16.07-5.66c1.02-.81,2.25-1.21,3.49-1.21,1.36,0,2.73.49,3.8,1.44,4.6,4.12,10.82,6.34,16.99,6.34,4.09,0,8.16-.98,11.71-3.04.89-.52,1.88-.76,2.87-.76,1.49,0,2.97.56,4.1,1.63,5,4.73,10.54,6.94,16.13,6.94,6.21,0,12.49-2.72,18.21-7.74,1.05-.92,2.38-1.4,3.72-1.4.94,0,1.88.23,2.74.7,24.94,13.61,51.94,32.46,79.39,32.46,11.25,0,22.58-3.17,33.87-11.16,2.78-1.97,7.71-7.5,10.62-7.95,8.23-1.26,9.14.37,17.16-5.58,4.24-3.14,8.98-5.85,12.63-8.68,32.01-24.88,21.41-61.52,6.31-92.84-29-60.18-77.55-107.67-135.13-140.75-29.95-17.21-63.46-26.4-94.43-41.34-2.96-1.43-4.07-5.06-2.47-7.92,11.36-20.22,15.63-46.31,2.45-66.61-13.94-21.46-37.7-23.96-58.1-35.09-10.47-5.71-26.19-15.99-33.71-25.02-4.57-5.49-12.25-24.4-16.8-26.25-.55-.22-1.16-.33-1.8-.33h0Z"/>
    </g>
    <g>
      <path class="cls-1" d="M655.91,1350.22c-10.95,0-18.98-4.05-26.04-13.13-.99-1.27-2.21-3.13-3.49-5.1-1.44-2.2-3.07-4.69-4.92-7.17-.52-.71-.88-1.22-1.12-1.58-.01-.15-.03-.3-.04-.43-.13-1.52-.31-3.59-.72-6.27-1.2-7.86-6.11-13.29-10.05-17.66-.47-.53-1.17-1.3-1.47-1.66-15.4-21.94-4.62-44.23,14.93-78.29,2.57-4.48,5.23-9.11,7.72-13.66,5.15-9.43,3.85-21.18-3.23-29.24-4-4.55-2.81-5.81-1.3-7.41,7.82-8.28,9.31-20.91,3.64-30.72-.67-1.16-.39-3.91.9-5.34,8.38-9.36,8.79-23.27.98-33.08-1.5-1.88-1.74-4.58-.54-5.91,8.97-9.84,8.96-25.11-.02-34.78-3-3.23-2.62-5.23-.87-7.81,3.9-5.74,5.32-12.65,3.99-19.45-1.32-6.77-5.21-12.6-10.95-16.43-.93-.62-1.85-1.22-2.77-1.81-3.72-2.4-5.56-3.64-6.9-5.5q-.9-1.25-1.48-3.96c-.48-2.23-1.14-5.28-2.49-8.95-4.49-12.17-13.36-18.34-26.35-18.35-.33,0-.75,0-.98,0-1.57-.35-3.19-1.26-4.07-1.98-1.03-8.94-6.58-16.8-14.78-20.59-5.53-2.56-15.63-9.18-14.29-15.93.51-2.54,1.9-5.18,3.19-6.69,2.85-1.2,7.53-3.53,10.84-8.72,3.08-4.85,3.48-9.8,3.78-13.41.02-.22.03-.44.05-.64,3.42-10.66,21.12-24.49,45.54-35.5,4.85-2.19,9.68-3.51,15.05-4.9,5.78-1.49,10.89-4.97,14.39-9.8,2.97-4.09,6.19-8.81,9.61-13.8,9.13-13.35,20.49-29.97,32.49-42.5,14.04-14.67,23.07-17.75,28.17-17.75.29,0,.58,0,.86.03,5.28.49,21.9,9.97,31.18,18.49.08.12.16.24.25.36,2.44,3.53,6.99,10.09,15.47,12.38,1.74.47,3.55.71,5.39.71h0c2.17,0,3.99-.32,5.9-.67,4.56,2.99,12.43,8.75,18.28,13.33.21.22.42.46.63.69,1.81,1.98,4.54,4.96,8.62,7.19,4.58,2.5,8.87,2.72,11.8,2.82.05.06.1.12.15.18,1.73,2.07,4.34,5.19,8.6,7.55,4.54,2.52,8.96,2.81,11.9,2.81.72,0,1.51-.02,2.32-.05,3.19,1.41,10.21,5.34,25.46,15.36l1.52,1c.78.52,3.5,2.56,5.29,3.92,8.74,6.59,11.98,8.93,16.19,10.29,2.51.81,5.15,1.21,8.06,1.21,1.61,0,3.07-.12,4.23-.22,2.29,1.39,4.52,2.71,6.69,4,21.79,12.93,28.73,17.91,29.86,36.52,1.46,24.09-16.28,70.38-28.01,101.01-3.39,8.85-6.59,17.21-9.16,24.46-.81,2.3-1.73,4.76-2.67,7.31-2.73,7.4-5.83,15.79-7.74,23.16l-.13.47c-.14.5-.3,1.1-.47,1.73-2.17,8.27-.07,16.97,5.38,23.29-7.39,1.78-13.79,6.81-17.16,13.8-6.57,13.62-12.04,27.58-17.32,41.08-7.23,18.47-14.06,35.93-23.35,52.08-32.97,57.38-78.65,101.32-132.09,127.07-17.54,8.45-31.38,12.56-42.32,12.56Z"/>
      <path class="cls-2" d="M711.74,804.95c4.94,2.29,12.74,7.31,17.59,11.34,3.86,5.39,11.58,14.84,25.5,18.59,3.44.93,7.01,1.4,10.61,1.4.2,0,.41,0,.61,0,3.23,2.32,6.9,5.06,9.98,7.43,2.48,2.69,6.76,7.12,13.29,10.68,4.24,2.31,8.32,3.59,11.85,4.3,2.26,2.06,5.1,4.26,8.57,6.18,5.77,3.2,12.02,4.93,19.05,5.26,3.48,1.95,9.38,5.54,19.35,12.09l1.32.87c.81.57,2.98,2.21,4.44,3.31,9.32,7.02,14.45,10.89,22.07,13.35,4.18,1.35,8.63,2.08,13.25,2.16.56.33,1.11.66,1.66.99,7.65,4.54,14.88,8.83,17.81,12.09.67.74,1.91,2.12,2.29,8.43.26,4.33-.34,15.06-7.33,38.21-5.44,18.02-12.85,37.37-19.39,54.44-3.44,8.97-6.68,17.44-9.33,24.93-.75,2.13-1.64,4.53-2.58,7.07-2.88,7.79-6.14,16.61-8.3,24.91l-.08.29c-.16.57-.35,1.26-.54,1.98-1.77,6.73-1.95,13.62-.69,20.19-3.98,3.75-7.32,8.24-9.76,13.3-6.9,14.31-12.51,28.63-17.93,42.48-6.95,17.76-13.52,34.54-22.06,49.41-30.96,53.87-73.64,95.03-123.43,119.02-14.57,7.02-25.88,10.58-33.64,10.58-4.19,0-6.66-.78-10.25-5.4-.49-.64-1.69-2.45-2.56-3.78-.99-1.5-2.13-3.25-3.41-5.1-.1-.76-.21-1.57-.34-2.43-2.12-13.79-10.16-22.71-14.97-28.03-.15-.17-.33-.37-.5-.55-3.04-4.58-4.21-8.91-2.15-17.17,2.84-11.38,10.86-25.35,18.62-38.86,2.62-4.57,5.34-9.29,7.93-14.04,7.46-13.67,7.31-30.09.16-43.48,2.3-4.59,3.82-9.57,4.49-14.78.8-6.29.27-12.7-1.51-18.75,7.21-12.73,7.84-28.14,1.77-41.38,2.97-6,4.62-12.61,4.76-19.4.18-8.57-2.01-16.84-6.27-24.05,3.11-7.99,3.91-16.7,2.23-25.32-2.35-12.04-9.27-22.42-19.47-29.23-1.01-.68-2.02-1.33-3.02-1.97-.15-.1-.31-.2-.47-.3-.56-2.27-1.34-5.09-2.5-8.22-5.44-14.75-14.93-22.3-21.94-26.04-4.53-2.42-8.89-3.75-12.66-4.49-3.8-7.85-9.79-14.56-17.38-19.19,1.27-1.46,2.5-3.09,3.66-4.91,4.63-7.28,5.99-14.41,6.54-19.36,3.04-4.18,13.71-13.45,34.17-22.68,3.12-1.41,6.43-2.37,11.83-3.77,10.27-2.65,19.35-8.84,25.57-17.42,3.13-4.32,6.43-9.15,9.93-14.26,8.24-12.05,17.58-25.71,27.39-36.67,8.33-9.32,13.72-12.92,16.21-14.24M712.3,764.33c-35.28,0-67.61,56.32-86.46,82.31-.78,1.08-1.91,1.84-3.2,2.18-6.29,1.62-12.09,3.24-18.27,6.03-20.15,9.09-51,26.75-56.9,49.49-.47,1.8-.4,6.42-1.12,7.56-.54.85-3.74,1.59-5.13,2.63-5.97,4.51-10.2,12.37-11.64,19.61-3.5,17.55,10.68,31.12,25.5,37.98,2.15,1,3.39,3.17,3.36,5.55,0,.14,0,.28.02.41,1.05,9.54,11.38,16.37,20.15,18.11,6.17,1.23,9.56-1.78,12.3,5.63,2.48,6.71,1.37,10.55,6.52,17.68,4.28,5.94,9.46,8.69,14.79,12.24,2.66,1.77,3.31,5.36,1.51,8-7.36,10.83-6.13,23.08,2.77,32.65,2.01,2.16,1.89,5.51-.1,7.69-8.02,8.8-7.84,22.41-.33,31.84,1.7,2.14,1.59,5.25-.23,7.29-6.85,7.65-8.47,19.79-3.31,28.7,1.29,2.23.91,5.09-.87,6.97-9.97,10.56-8.74,23.47.81,34.34,1.57,1.79,1.84,4.37.7,6.46-19.19,35.16-48.8,74.43-21.3,113.26,1.97,2.78,7.5,7.71,7.95,10.62,1.26,8.23-.37,9.14,5.58,17.16,3.14,4.24,5.85,8.98,8.68,12.63,11.88,15.29,26.45,20.86,41.83,20.86,16.83,0,34.64-6.66,51-14.54,60.18-29,107.67-77.55,140.75-135.13,17.21-29.95,26.4-63.46,41.34-94.43.98-2.04,3.01-3.2,5.12-3.2.95,0,1.91.24,2.8.74,11.46,6.44,24.79,10.6,37.9,10.6,10.02,0,19.91-2.44,28.71-8.15,21.46-13.94,23.96-37.7,35.09-58.1,5.71-10.47,15.99-26.19,25.02-33.71,5.49-4.57,24.4-12.25,26.25-16.8,1.56-3.86-2.73-10.34-7.05-10.96-.2-.03-.42-.04-.64-.04-6.63,0-22.49,12.21-29.16,15.09-3.7,1.6-6.63.48-10.61,1.99-10.83,4.13-23.28,16.02-29.22,25.74-10.51,17.2-11.82,44.84-33.41,52.93-2.83,1.06-5.64,1.53-8.4,1.53-9.99,0-19.38-6.14-27.32-12.45-1.76-1.4-2.53-3.7-1.96-5.88.25-.96.51-1.83.62-2.28,2.26-8.75,6.77-19.98,9.89-28.79,12.36-34.86,40.43-97.8,38.28-133.36-2.06-34.14-23.01-42.12-48.51-57.86-2.02-1.25-4.22-1.56-6.33-1.56s-4.23.33-5.9.33c-.72,0-1.37-.06-1.91-.24-1.98-.64-13.33-9.72-16.67-11.91-7.27-4.77-26.87-17.86-34.35-19.53-.53-.12-1.23-.16-1.99-.16-1.26,0-2.71.1-3.92.1-.97,0-1.78-.07-2.21-.3-2.55-1.41-4.47-6.29-10.07-8.93-3.94-1.86-9.12-.88-10.61-1.69-2.01-1.1-4-4.11-6.06-5.72-4.5-3.53-22.67-17.39-26.77-18.27-.43-.09-.95-.13-1.51-.13-3.05,0-7.54,1.15-8.66,1.15-.08,0-.14,0-.18-.02-2.22-.6-4.6-5.5-6.28-7.1-9.25-8.87-31.63-23.91-44.5-24.77-.73-.05-1.46-.07-2.19-.07h0Z"/>
    </g>
    <g>
      <path class="cls-1" d="M465.21,894.64c-24.88,0-67.26-16.24-98.21-28.09-8.85-3.39-17.21-6.59-24.46-9.16-2.3-.82-4.77-1.73-7.33-2.67-7.39-2.73-15.78-5.83-23.14-7.73l-.47-.13c-.5-.14-1.1-.3-1.73-.47-2.13-.56-4.33-.85-6.53-.85-6.24,0-12.14,2.22-16.76,6.21-.14-.58-.3-1.16-.48-1.73-2.12-6.73-6.97-12.35-13.33-15.42-13.62-6.57-27.58-12.04-41.08-17.32-18.47-7.23-35.92-14.06-52.08-23.35-57.38-32.97-101.32-78.65-127.07-132.09-20.93-43.43-12.09-58.52.57-68.36,1.27-.99,3.13-2.21,5.09-3.49,2.2-1.44,4.69-3.07,7.18-4.92.7-.52,1.22-.88,1.58-1.12.15-.01.3-.03.43-.04,1.52-.13,3.59-.31,6.27-.72,7.86-1.21,13.3-6.11,17.66-10.05.53-.48,1.3-1.18,1.66-1.47,7.15-5.02,14.19-7.36,22.14-7.36,17.31,0,37.05,11.34,56.14,22.3,4.48,2.57,9.11,5.23,13.67,7.72,3.77,2.06,8.03,3.14,12.32,3.14,6.23,0,12.24-2.26,16.92-6.37,2.49-2.19,4.33-2.77,5.02-2.77.52,0,1.43.57,2.4,1.47,4.84,4.57,11.17,7.09,17.83,7.09,4.52,0,8.98-1.19,12.88-3.45.38-.22,1.01-.35,1.7-.35,1.35,0,2.82.5,3.65,1.24,4.71,4.22,10.8,6.54,17.13,6.54,5.78,0,11.44-1.98,15.95-5.56,1.04-.83,2.36-1.3,3.62-1.3.96,0,1.73.26,2.29.77,4.79,4.37,10.99,6.77,17.45,6.77s12.62-2.42,17.34-6.8c.89-.83,2.64-2.22,4.3-2.22,1.25,0,2.59.73,3.5,1.35,4.31,2.92,9.32,4.47,14.51,4.47,8.6,0,16.59-4.27,21.37-11.42.62-.93,1.22-1.86,1.81-2.77,2.4-3.72,3.64-5.56,5.5-6.91q1.25-.9,3.96-1.48c2.23-.48,5.28-1.14,8.95-2.49,12.17-4.49,18.34-13.36,18.35-26.35,0-.33,0-.76,0-.99.35-1.57,1.26-3.19,1.98-4.07,8.93-1.03,16.81-6.61,20.6-14.79,3.87-8.36,9.96-14.43,14.48-14.43.46,0,.93.05,1.44.15,2.54.51,5.18,1.9,6.69,3.19,1.2,2.85,3.53,7.54,8.73,10.84,4.84,3.07,9.79,3.48,13.4,3.77.22.02.44.03.64.05,10.66,3.42,24.49,21.12,35.5,45.54,2.19,4.85,3.51,9.68,4.9,15.04,1.5,5.79,4.98,10.89,9.8,14.39,4.09,2.97,8.81,6.19,13.8,9.61,13.69,9.36,30.74,21.01,43.37,33.32,11.51,11.21,17.34,20.96,16.85,28.19-.49,5.27-9.97,21.9-18.49,31.18-.12.08-.24.16-.36.25-3.53,2.44-10.09,6.99-12.38,15.47-1.23,4.56-.58,8.29-.04,11.29-2.99,4.56-8.75,12.42-13.33,18.28-.22.21-.46.42-.69.64-1.98,1.81-4.96,4.54-7.18,8.62-2.5,4.59-2.73,8.87-2.82,11.81-.06.05-.12.1-.18.15-2.07,1.73-5.19,4.34-7.54,8.59-2.99,5.39-2.89,10.64-2.76,14.22-1.42,3.2-5.34,10.22-15.38,25.48l-.99,1.5c-.52.79-2.57,3.5-3.92,5.3-6.58,8.74-8.93,11.98-10.29,16.19-1.6,4.95-1.23,9.36-.99,12.29-1.39,2.29-2.71,4.52-4,6.69-12.93,21.79-17.91,28.73-36.52,29.86-.88.05-1.82.08-2.8.08Z"/>
      <path class="cls-2" d="M451.96,540.06c1.46,1.27,3.1,2.51,4.91,3.66,7.28,4.62,14.4,5.98,19.36,6.53,4.18,3.04,13.45,13.71,22.68,34.17,1.41,3.12,2.37,6.43,3.76,11.82,2.65,10.27,8.84,19.35,17.42,25.58,4.32,3.13,9.15,6.43,14.26,9.93,12.05,8.24,25.71,17.58,36.67,27.39,9.32,8.33,12.92,13.72,14.24,16.21-2.29,4.94-7.31,12.75-11.35,17.59-5.39,3.86-14.83,11.58-18.59,25.51-1.12,4.15-1.44,7.93-1.39,11.19-2.32,3.23-5.06,6.91-7.44,9.98-2.69,2.48-7.12,6.76-10.68,13.29-2.31,4.24-3.59,8.32-4.3,11.85-2.06,2.26-4.26,5.1-6.18,8.57-3.94,7.11-5.03,13.93-5.26,19.06-1.95,3.49-5.54,9.38-12.09,19.34l-.87,1.32c-.57.81-2.21,2.98-3.31,4.44-7.02,9.32-10.89,14.45-13.35,22.07-1.59,4.94-2.09,9.52-2.16,13.25-.33.56-.66,1.12-.99,1.67-4.54,7.65-8.83,14.88-12.09,17.81-.74.67-2.12,1.91-8.43,2.29-.48.03-1.02.04-1.6.04-21.18,0-63.23-16.11-91.06-26.77-8.97-3.44-17.44-6.68-24.93-9.33-2.13-.75-4.52-1.64-7.06-2.58-7.79-2.88-16.62-6.14-24.92-8.3l-.29-.08c-.57-.16-1.25-.35-1.99-.54-3.79-1-7.7-1.5-11.61-1.5-2.91,0-5.77.27-8.56.8-3.78-4-8.28-7.32-13.31-9.75-14.31-6.9-28.63-12.51-42.48-17.93-17.76-6.95-34.54-13.52-49.41-22.06-53.87-30.96-95.03-73.64-119.02-123.43-6.75-14.01-10.31-25.05-10.56-32.8-.16-4.75.56-7.34,5.39-11.09.64-.49,2.45-1.69,3.78-2.56,1.5-.99,3.25-2.13,5.1-3.41.76-.1,1.57-.21,2.43-.34,13.79-2.12,22.71-10.16,28.03-14.97.16-.15.35-.32.53-.48,4.27-2.8,7.37-3.2,9.86-3.2,11.97,0,30.15,10.44,46.18,19.64,4.57,2.62,9.3,5.34,14.05,7.93,6.7,3.66,14.27,5.59,21.9,5.59s14.99-1.89,21.59-5.42c6.32,3.17,13.34,4.85,20.58,4.85,4.4,0,8.77-.64,12.96-1.88,6.79,3.82,14.48,5.86,22.4,5.86,6.54,0,13-1.42,18.91-4.11,6.29,3.12,13.25,4.78,20.39,4.78,8.22,0,16.16-2.19,23.1-6.29,5.24,2.03,10.83,3.09,16.54,3.09,15.3,0,29.51-7.59,38-20.32.68-1.01,1.33-2.02,1.97-3.02.1-.15.2-.31.3-.47,2.27-.56,5.09-1.34,8.22-2.5,14.74-5.44,22.3-14.93,26.04-21.94,2.43-4.54,3.76-8.9,4.49-12.68,7.85-3.81,14.56-9.8,19.18-17.36M450.73,492.66c-14.95,0-26.49,12.76-32.63,26.03-.98,2.13-3.12,3.36-5.46,3.36-.03,0-.06,0-.09,0-.02,0-.03,0-.05,0-.12,0-.24,0-.36.02-9.54,1.05-16.37,11.38-18.11,20.15-1.23,6.17,1.78,9.56-5.63,12.3-6.71,2.48-10.55,1.37-17.68,6.52-5.94,4.28-8.69,9.46-12.24,14.79-1.1,1.65-2.9,2.52-4.73,2.52-1.13,0-2.27-.33-3.27-1.01-4.75-3.23-9.78-4.8-14.73-4.8-6.33,0-12.55,2.58-17.92,7.57-1.05.98-2.38,1.45-3.72,1.45-1.42,0-2.85-.53-3.97-1.55-4.42-4.03-10.05-5.99-15.76-5.99s-11.38,1.92-16.07,5.66c-1.02.81-2.25,1.21-3.49,1.21-1.36,0-2.73-.49-3.8-1.44-4.6-4.12-10.82-6.34-16.99-6.34-4.09,0-8.16.98-11.71,3.04-.89.52-1.88.76-2.87.76-1.49,0-2.97-.57-4.1-1.63-5-4.73-10.54-6.94-16.13-6.94-6.21,0-12.49,2.72-18.21,7.74-1.05.92-2.38,1.4-3.72,1.4-.94,0-1.88-.23-2.74-.7-24.94-13.61-51.94-32.46-79.39-32.46-11.25,0-22.58,3.17-33.87,11.17-2.78,1.97-7.71,7.5-10.62,7.95-8.23,1.26-9.14-.37-17.16,5.58-4.24,3.14-8.98,5.85-12.63,8.68-32.01,24.88-21.4,61.52-6.31,92.84,29,60.18,77.55,107.67,135.13,140.75,29.95,17.21,63.46,26.4,94.43,41.34,2.96,1.43,4.07,5.06,2.47,7.92-11.36,20.22-15.63,46.31-2.45,66.6,13.94,21.46,37.7,23.96,58.1,35.09,10.47,5.71,26.2,15.99,33.71,25.02,4.57,5.49,12.25,24.4,16.8,26.25.55.22,1.16.33,1.8.33,3.8,0,8.63-3.68,9.16-7.38.89-6.18-12.07-22.91-15.05-29.8-1.6-3.7-.48-6.63-1.99-10.61-4.13-10.83-16.02-23.28-25.74-29.22-17.2-10.51-44.84-11.82-52.93-33.41-4.91-13.1,2.87-25.58,10.93-35.71,1.09-1.37,2.74-2.14,4.44-2.14.48,0,.96.06,1.44.19.96.25,1.83.51,2.28.62,8.75,2.26,19.98,6.77,28.79,9.89,33.59,11.9,93.23,38.4,129.35,38.4,1.37,0,2.71-.04,4.01-.12,34.14-2.06,42.12-23.01,57.86-48.51,3.07-4.98.48-11.09,1.47-14.14.64-1.98,9.72-13.33,11.91-16.67,4.77-7.27,17.86-26.87,19.53-34.35.48-2.14-.36-6.83.36-8.12,1.41-2.55,6.29-4.47,8.93-10.07,1.86-3.94.88-9.12,1.69-10.61,1.1-2.02,4.11-4,5.72-6.06,3.53-4.5,17.39-22.67,18.27-26.77.63-2.94-1.21-9.56-1-10.35.6-2.22,5.5-4.6,7.1-6.28,8.87-9.25,23.91-31.63,24.77-44.5,2.41-36.13-55.71-69.41-82.24-88.65-1.08-.78-1.84-1.91-2.18-3.2-1.62-6.29-3.24-12.09-6.03-18.27-9.09-20.15-26.75-51-49.49-56.9-1.8-.47-6.42-.4-7.56-1.12-.85-.54-1.59-3.74-2.63-5.13-4.51-5.97-12.37-10.2-19.61-11.64-1.83-.36-3.61-.54-5.35-.54h0Z"/>
    </g>
  </g>
</svg>