<?xml version="1.0" encoding="UTF-8"?>
<svg id="Layer_2" data-name="Layer 2" xmlns="http://www.w3.org/2000/svg" viewBox="0 0 1415.97 1354.22">
  <defs>
    <style>
      .cls-1 {
        fill: #dad9d9;
        stroke: #7f7f7f;
        stroke-miterlimit: 10;
        stroke-width: 4px;
      }
    </style>
  </defs>
  <g id="Layer_1-2" data-name="Layer 1">
    <path class="cls-1" d="M665.45,575.95c-.78-.21-7.41,1.63-10.35,1-4.1-.88-22.28-14.74-26.77-18.27-2.06-1.62-4.05-4.63-6.06-5.72-1.49-.81-6.67.18-10.61-1.69-5.6-2.65-7.52-7.52-10.07-8.93-1.29-.71-5.98.12-8.12-.36-7.48-1.67-27.08-14.76-34.35-19.53-3.34-2.19-14.69-11.27-16.67-11.91-3.06-.99-9.16,1.61-14.14-1.47-25.5-15.74-46.44-23.72-48.51-57.86-2.15-35.56,25.93-98.49,38.28-133.36,3.12-8.81,7.63-20.04,9.89-28.79.12-.44.37-1.32.62-2.28.57-2.17-.2-4.48-1.96-5.88-10.13-8.06-22.61-15.83-35.71-10.93-21.6,8.08-22.9,35.73-33.41,52.93-5.95,9.73-18.4,21.61-29.22,25.74-3.97,1.52-6.91.39-10.61,1.99-6.89,2.98-23.62,15.94-29.8,15.05-4.32-.62-8.61-7.11-7.05-10.96,1.84-4.55,20.75-12.23,26.25-16.8,9.03-7.52,19.31-23.25,25.02-33.71,11.14-20.4,13.63-44.16,35.09-58.1,20.3-13.19,46.39-8.92,66.61,2.45,2.86,1.61,6.49.49,7.92-2.47,14.94-30.97,24.13-64.48,41.34-94.43,33.08-57.57,80.57-106.13,140.75-135.13,31.32-15.09,67.96-25.7,92.84,6.31,2.83,3.64,5.54,8.39,8.68,12.63,5.95,8.02,4.32,8.94,5.58,17.16.45,2.91,5.98,7.84,7.95,10.62,27.5,38.83-2.11,78.1-21.3,113.26-1.14,2.09-.87,4.67.7,6.46,9.55,10.87,10.78,23.78.81,34.34-1.77,1.88-2.16,4.73-.87,6.97,5.16,8.91,3.54,21.05-3.31,28.7-1.82,2.04-1.94,5.15-.23,7.29,7.51,9.43,7.69,23.04-.33,31.84-1.99,2.18-2.12,5.53-.1,7.69,8.9,9.58,10.12,21.82,2.77,32.65-1.8,2.64-1.15,6.23,1.51,8,5.33,3.56,10.51,6.31,14.79,12.24,5.14,7.13,4.04,10.97,6.52,17.68,2.74,7.41,6.13,4.4,12.3,5.63,8.77,1.74,19.1,8.58,20.15,18.11.02.14.02.28.02.41-.03,2.37,1.2,4.55,3.36,5.55,14.82,6.86,28.99,20.44,25.5,37.98-1.44,7.24-5.68,15.11-11.64,19.61-1.38,1.04-4.59,1.79-5.13,2.63-.72,1.14-.65,5.76-1.12,7.56-5.89,22.74-36.75,40.4-56.9,49.49-6.18,2.79-11.99,4.41-18.27,6.03-1.29.33-2.42,1.1-3.2,2.18-19.24,26.53-52.53,84.65-88.65,82.24-12.86-.86-35.24-15.9-44.5-24.77-1.67-1.6-4.06-6.5-6.28-7.1Z"/>
    <path class="cls-1" d="M840.01,651.52c.21-.78-1.63-7.41-1-10.35.88-4.1,14.74-22.28,18.27-26.77,1.62-2.06,4.63-4.05,5.72-6.06.81-1.49-.18-6.67,1.69-10.61,2.65-5.6,7.52-7.52,8.93-10.07.71-1.29-.12-5.98.36-8.12,1.67-7.48,14.76-27.08,19.53-34.35,2.19-3.34,11.27-14.69,11.91-16.67.99-3.06-1.61-9.16,1.47-14.14,15.74-25.5,23.72-46.44,57.86-48.51,35.56-2.15,98.49,25.93,133.36,38.28,8.81,3.12,20.04,7.63,28.79,9.89.44.12,1.32.37,2.28.62,2.17.57,4.48-.2,5.88-1.96,8.06-10.13,15.83-22.61,10.93-35.71-8.08-21.6-35.73-22.9-52.93-33.41-9.73-5.95-21.61-18.4-25.74-29.22-1.52-3.97-.39-6.91-1.99-10.61-2.98-6.89-15.94-23.62-15.05-29.8.62-4.32,7.11-8.61,10.96-7.05,4.55,1.84,12.23,20.75,16.8,26.25,7.52,9.03,23.25,19.31,33.71,25.02,20.4,11.14,44.16,13.63,58.1,35.09,13.19,20.3,8.92,46.39-2.45,66.61-1.61,2.86-.49,6.49,2.47,7.92,30.97,14.94,64.48,24.13,94.43,41.34,57.57,33.08,106.13,80.57,135.13,140.75,15.09,31.32,25.7,67.96-6.31,92.84-3.64,2.83-8.39,5.54-12.63,8.68-8.02,5.95-8.94,4.32-17.16,5.58-2.91.45-7.84,5.98-10.62,7.95-38.83,27.5-78.1-2.11-113.26-21.3-2.09-1.14-4.67-.87-6.46.7-10.87,9.55-23.78,10.78-34.34.81-1.88-1.77-4.73-2.16-6.97-.87-8.91,5.16-21.05,3.54-28.7-3.31-2.04-1.82-5.15-1.94-7.29-.23-9.43,7.51-23.04,7.69-31.84-.33-2.18-1.99-5.53-2.12-7.69-.1-9.58,8.9-21.82,10.12-32.65,2.77-2.64-1.8-6.23-1.15-8,1.51-3.56,5.33-6.31,10.51-12.24,14.79-7.13,5.14-10.97,4.04-17.68,6.52-7.41,2.74-4.4,6.13-5.63,12.3-1.74,8.77-8.58,19.1-18.11,20.15-.14.02-.28.02-.41.02-2.37-.03-4.55,1.2-5.55,3.36-6.86,14.82-20.44,28.99-37.98,25.5-7.24-1.44-15.11-5.68-19.61-11.64-1.04-1.38-1.79-4.59-2.63-5.13-1.14-.72-5.76-.65-7.56-1.12-22.74-5.89-40.4-36.75-49.49-56.9-2.79-6.18-4.41-11.99-6.03-18.27-.33-1.29-1.1-2.42-2.18-3.2-26.53-19.24-84.65-52.53-82.24-88.65.86-12.86,15.9-35.24,24.77-44.5,1.6-1.67,6.5-4.06,7.1-6.28Z"/>
    <path class="cls-1" d="M747.26,778.27c.78.21,7.41-1.63,10.35-1,4.1.88,22.28,14.74,26.77,18.27,2.06,1.62,4.05,4.63,6.06,5.72,1.49.81,6.67-.18,10.61,1.69,5.6,2.65,7.52,7.52,10.07,8.93,1.29.71,5.98-.12,8.12.36,7.48,1.67,27.08,14.76,34.35,19.53,3.34,2.19,14.69,11.27,16.67,11.91,3.06.99,9.16-1.61,14.14,1.47,25.5,15.74,46.44,23.72,48.51,57.86,2.15,35.56-25.93,98.49-38.28,133.36-3.12,8.81-7.63,20.04-9.89,28.79-.12.44-.37,1.32-.62,2.28-.57,2.17.2,4.48,1.96,5.88,10.13,8.06,22.61,15.83,35.71,10.93,21.6-8.08,22.9-35.73,33.41-52.93,5.95-9.73,18.4-21.61,29.22-25.74,3.97-1.52,6.91-.39,10.61-1.99,6.89-2.98,23.62-15.94,29.8-15.05,4.32.62,8.61,7.11,7.05,10.96-1.84,4.55-20.75,12.23-26.25,16.8-9.03,7.52-19.31,23.25-25.02,33.71-11.14,20.4-13.63,44.16-35.09,58.1-20.3,13.19-46.39,8.92-66.61-2.45-2.86-1.61-6.49-.49-7.92,2.47-14.94,30.97-24.13,64.48-41.34,94.43-33.08,57.57-80.57,106.13-140.75,135.13-31.32,15.09-67.96,25.7-92.84-6.31-2.83-3.64-5.54-8.39-8.68-12.63-5.95-8.02-4.32-8.94-5.58-17.16-.45-2.91-5.98-7.84-7.95-10.62-27.5-38.83,2.11-78.1,21.3-113.26,1.14-2.09.87-4.67-.7-6.46-9.55-10.87-10.78-23.78-.81-34.34,1.77-1.88,2.16-4.73.87-6.97-5.16-8.91-3.54-21.05,3.31-28.7,1.82-2.04,1.94-5.15.23-7.29-7.51-9.43-7.69-23.04.33-31.84,1.99-2.18,2.12-5.53.1-7.69-8.9-9.58-10.12-21.82-2.77-32.65,1.8-2.64,1.15-6.23-1.51-8-5.33-3.56-10.51-6.31-14.79-12.24-5.14-7.13-4.04-10.97-6.52-17.68-2.74-7.41-6.13-4.4-12.3-5.63-8.77-1.74-19.1-8.58-20.15-18.11-.02-.14-.02-.28-.02-.41.03-2.37-1.2-4.55-3.36-5.55-14.82-6.86-28.99-20.44-25.5-37.98,1.44-7.24,5.68-15.11,11.64-19.61,1.38-1.04,4.59-1.79,5.13-2.63.72-1.14.65-5.76,1.12-7.56,5.89-22.74,36.75-40.4,56.9-49.49,6.18-2.79,11.99-4.41,18.27-6.03,1.29-.33,2.42-1.1,3.2-2.18,19.24-26.53,52.53-84.65,88.65-82.24,12.86.86,35.24,15.9,44.5,24.77,1.67,1.6,4.06,6.5,6.28,7.1Z"/>
    <path class="cls-1" d="M575.95,721.96c-.21.78,1.63,7.41,1,10.35-.88,4.1-14.74,22.28-18.27,26.77-1.62,2.06-4.63,4.05-5.72,6.06-.81,1.49.18,6.67-1.69,10.61-2.65,5.6-7.52,7.52-8.93,10.07-.71,1.29.12,5.98-.36,8.12-1.67,7.48-14.76,27.08-19.53,34.35-2.19,3.34-11.27,14.69-11.91,16.67-.99,3.06,1.61,9.16-1.47,14.14-15.74,25.5-23.72,46.44-57.86,48.51-35.56,2.15-98.49-25.93-133.36-38.28-8.81-3.12-20.04-7.63-28.79-9.89-.44-.12-1.32-.37-2.28-.62-2.17-.57-4.48.2-5.88,1.96-8.06,10.13-15.83,22.61-10.93,35.71,8.08,21.6,35.73,22.9,52.93,33.41,9.73,5.95,21.61,18.4,25.74,29.22,1.52,3.97.39,6.91,1.99,10.61,2.98,6.89,15.94,23.62,15.05,29.8-.62,4.32-7.11,8.61-10.96,7.05-4.55-1.84-12.23-20.75-16.8-26.25-7.52-9.03-23.25-19.31-33.71-25.02-20.4-11.14-44.16-13.63-58.1-35.09-13.19-20.3-8.92-46.39,2.45-66.61,1.61-2.86.49-6.49-2.47-7.92-30.97-14.94-64.48-24.13-94.43-41.34-57.57-33.08-106.13-80.57-135.13-140.75-15.09-31.32-25.7-67.96,6.31-92.84,3.64-2.83,8.39-5.54,12.63-8.68,8.02-5.95,8.94-4.32,17.16-5.58,2.91-.45,7.84-5.98,10.62-7.95,38.83-27.5,78.1,2.11,113.26,21.3,2.09,1.14,4.67.87,6.46-.7,10.87-9.55,23.78-10.78,34.34-.81,1.88,1.77,4.73,2.16,6.97.87,8.91-5.16,21.05-3.54,28.7,3.31,2.04,1.82,5.15,1.94,7.29.23,9.43-7.51,23.04-7.69,31.84.33,2.18,1.99,5.53,2.12,7.69.1,9.58-8.9,21.82-10.12,32.65-2.77,2.64,1.8,6.23,1.15,8-1.51,3.56-5.33,6.31-10.51,12.24-14.79,7.13-5.14,10.97-4.04,17.68-6.52,7.41-2.74,4.4-6.13,5.63-12.3,1.74-8.77,8.58-19.1,18.11-20.15.14-.02.28-.02.41-.02,2.37.03,4.55-1.2,5.55-3.36,6.86-14.82,20.44-28.99,37.98-25.5,7.24,1.44,15.11,5.68,19.61,11.64,1.04,1.38,1.79,4.59,2.63,5.13,1.14.72,5.76.65,7.56,1.12,22.74,5.89,40.4,36.75,49.49,56.9,2.79,6.18,4.41,11.99,6.03,18.27.33,1.29,1.1,2.42,2.18,3.2,26.53,19.24,84.65,52.53,82.24,88.65-.86,12.86-15.9,35.24-24.77,44.5-1.6,1.67-6.5,4.06-7.1,6.28Z"/>
  </g>
</svg>