<?xml version="1.0" encoding="UTF-8"?>
<svg id="Layer_2" data-name="Layer 2" xmlns="http://www.w3.org/2000/svg" viewBox="0 0 291.77 316.69">
  <defs>
    <style>
      .cls-1 {
        fill: none;
        stroke: #959595;
        stroke-linecap: round;
        stroke-miterlimit: 10;
        stroke-width: 40px;
      }
    </style>
  </defs>
  <g id="Layer_1-2" data-name="Layer 1">
    <path class="cls-1" d="M31.25,82.73h229.26c6.99,0,12.29-1.66,11.08-3.47l-37.79-56.82c-.94-1.42-5.62-2.45-11.08-2.45H66.88c-5.51,0-10.21,1.05-11.1,2.48l-35.63,56.82c-1.13,1.8,4.16,3.44,11.1,3.44Z"/>
    <path class="cls-1" d="M25.72,135.67h240.32c3.03,0,5.36,2.67,4.96,5.67l-18.63,138.03c-1.34,9.92-9.81,17.33-19.82,17.33H59.29c-10.01,0-18.48-7.4-19.82-17.31l-18.71-138.04c-.41-3,1.93-5.67,4.95-5.67Z"/>
  </g>
</svg>