<?xml version="1.0" encoding="UTF-8"?>
<svg id="Layer_2" data-name="Layer 2" xmlns="http://www.w3.org/2000/svg" viewBox="0 0 235.17 373.42">
  <defs>
    <style>
      .cls-1 {
        fill: none;
        stroke: #959595;
        stroke-linecap: round;
        stroke-miterlimit: 10;
        stroke-width: 40px;
      }
    </style>
  </defs>
  <g id="Layer_1-2" data-name="Layer 1">
    <path class="cls-1" d="M179.27,20h-6.32c-19.83,0-35.9,16.07-35.9,35.9v83.46H46.76c-14.78,0-26.76,11.98-26.76,26.76h0c0,14.78,11.98,26.76,26.76,26.76-14.78,0-26.76,11.98-26.76,26.76h0c0,14.78,11.98,26.76,26.76,26.76-14.78,0-26.76,11.98-26.76,26.76h0c0,14.78,11.98,26.76,26.76,26.76-14.78,0-26.76,11.98-26.76,26.76h0c0,14.78,11.98,26.76,26.76,26.76h114.9c29.56,0,53.52-23.96,53.52-53.52h0V55.9c0-19.83-16.07-35.9-35.9-35.9Z"/>
  </g>
</svg>