<?xml version="1.0" encoding="UTF-8"?>
<svg id="Layer_2" data-name="Layer 2" xmlns="http://www.w3.org/2000/svg" viewBox="0 0 1030.87 1122.71">
  <defs>
    <style>
      .cls-1 {
        fill: #e6e5f3;
      }
    </style>
  </defs>
  <g id="Layer_1-2" data-name="Layer 1">
    <path d="M374.54,498.51c-.7.41-4.09,6.39-6.61,8.02-3.52,2.28-26.17,5.33-31.85,6.01-2.6.31-6.13-.41-8.33.24-1.62.48-4.59,4.84-8.69,6.31-5.83,2.09-10.64,0-13.44.8-1.42.41-4.15,4.31-5.99,5.49-6.46,4.11-29.58,8.71-38.1,10.48-3.9.81-18.35,2.42-20.21,3.37-2.86,1.46-5.34,7.62-11.04,8.96-29.16,6.9-49.61,16.07-75.22-6.61-26.66-23.62-51.31-87.98-67.23-121.37-4.02-8.44-8.78-19.57-13.36-27.36-.23-.4-.67-1.2-1.17-2.05-1.13-1.94-3.31-3.03-5.54-2.77-12.86,1.47-27.18,4.79-32.98,17.53-9.55,20.99,9.07,41.46,13.8,61.05,2.67,11.08,2.27,28.29-2.46,38.87-1.74,3.88-4.61,5.16-6.09,8.91-2.77,6.98-5.43,27.97-10.43,31.72-3.49,2.61-11.11,1.07-12.74-2.77-1.91-4.52,6.03-23.32,6.68-30.44,1.07-11.7-2.79-30.09-6.15-41.53-6.55-22.3-21.59-40.87-16.27-65.9,5.03-23.68,26.5-39.11,48.83-45.37,3.16-.89,4.94-4.24,3.85-7.34-11.33-32.46-28.53-62.66-37.54-96C-1.06,192.66-1.82,124.75,20.23,61.69,31.71,28.87,50.12-4.54,90.34.51c4.58.57,9.85,2.02,15.07,2.79,9.88,1.47,9.37,3.26,16.08,8.19,2.38,1.74,9.78,1.32,13.13,1.89,46.91,8.01,53.73,56.72,65.03,95.15.67,2.28,2.69,3.92,5.06,4.07,14.44.94,24.44,9.19,24.86,23.71.07,2.58,1.82,4.88,4.31,5.54,9.95,2.65,17.39,12.38,17.96,22.63.15,2.73,2.27,5.01,4.99,5.32,11.98,1.36,21.73,10.86,22.28,22.75.14,2.95,2.41,5.41,5.37,5.51,13.06.48,22.59,8.27,25.04,21.13.6,3.14,3.59,5.22,6.73,4.59,6.28-1.25,11.89-2.97,19.12-1.8,8.68,1.4,10.61,4.9,17.11,7.89,7.18,3.31,7.45-1.22,12.68-4.72,7.44-4.97,19.57-7.44,27.06-1.44.11.09.21.18.31.28,1.66,1.7,4.07,2.37,6.3,1.55,15.33-5.63,34.95-6.05,44.89,8.83,4.1,6.14,6.67,14.69,5.64,22.1-.24,1.72-1.98,4.51-1.76,5.49.29,1.31,3.61,4.54,4.55,6.14,11.91,20.25,2.58,54.55-5.24,75.23-2.4,6.34-5.36,11.59-8.65,17.18-.68,1.15-.93,2.49-.72,3.8,5.15,32.36,22.72,97-4.53,120.84-9.7,8.49-36.16,13.68-48.98,13.95-2.32.05-7.47-1.73-9.46-.58Z"/>
    <path d="M532.36,472.74c-.41-.7-6.39-4.09-8.02-6.61-2.28-3.52-5.33-26.17-6.01-31.85-.31-2.6.41-6.13-.24-8.33-.48-1.62-4.84-4.59-6.31-8.69-2.09-5.83,0-10.64-.8-13.44-.41-1.42-4.31-4.15-5.49-5.99-4.11-6.46-8.71-29.58-10.48-38.1-.81-3.9-2.42-18.35-3.37-20.21-1.46-2.86-7.62-5.34-8.96-11.04-6.9-29.16-16.07-49.61,6.61-75.22,23.62-26.66,87.98-51.31,121.37-67.23,8.44-4.02,19.57-8.78,27.36-13.36.4-.23,1.2-.67,2.05-1.17,1.94-1.13,3.03-3.31,2.77-5.54-1.47-12.86-4.79-27.18-17.53-32.98-20.99-9.55-41.46,9.07-61.05,13.8-11.08,2.67-28.29,2.27-38.87-2.46-3.88-1.74-5.16-4.61-8.91-6.09-6.98-2.77-27.97-5.43-31.72-10.43-2.61-3.49-1.07-11.11,2.77-12.74,4.52-1.91,23.32,6.03,30.44,6.68,11.7,1.07,30.09-2.79,41.53-6.15,22.3-6.55,40.87-21.59,65.9-16.27,23.68,5.03,39.11,26.5,45.37,48.83.89,3.16,4.24,4.94,7.34,3.85,32.46-11.33,62.66-28.53,96-37.54,64.1-17.32,132.01-18.07,195.07,3.98,32.82,11.48,66.22,29.89,61.18,70.11-.57,4.58-2.02,9.85-2.79,15.07-1.47,9.88-3.26,9.37-8.19,16.08-1.74,2.38-1.32,9.78-1.89,13.13-8.01,46.91-56.72,53.73-95.15,65.03-2.28.67-3.92,2.69-4.07,5.06-.94,14.44-9.19,24.44-23.71,24.86-2.58.07-4.88,1.82-5.54,4.31-2.65,9.95-12.38,17.39-22.63,17.96-2.73.15-5.01,2.27-5.32,4.99-1.36,11.98-10.86,21.73-22.75,22.28-2.95.14-5.41,2.41-5.51,5.37-.48,13.06-8.27,22.59-21.13,25.04-3.14.6-5.22,3.59-4.59,6.73,1.25,6.28,2.97,11.89,1.8,19.12-1.4,8.68-4.9,10.61-7.89,17.11-3.31,7.18,1.22,7.45,4.72,12.68,4.97,7.44,7.44,19.57,1.44,27.06-.09.11-.18.21-.28.31-1.7,1.66-2.37,4.07-1.55,6.3,5.63,15.33,6.05,34.95-8.83,44.89-6.14,4.1-14.69,6.67-22.1,5.64-1.72-.24-4.51-1.98-5.49-1.76-1.31.29-4.54,3.61-6.14,4.55-20.25,11.91-54.55,2.58-75.23-5.24-6.34-2.4-11.59-5.36-17.18-8.65-1.15-.68-2.49-.93-3.8-.72-32.36,5.15-97,22.72-120.84-4.53-8.49-9.7-13.68-36.16-13.95-48.98-.05-2.32,1.73-7.47.58-9.46Z"/>
    <path d="M656.33,624.2c.7-.41,4.09-6.39,6.61-8.02,3.52-2.28,26.17-5.33,31.85-6.01,2.6-.31,6.13.41,8.33-.24,1.62-.48,4.59-4.84,8.69-6.31,5.83-2.09,10.64,0,13.44-.8,1.42-.41,4.15-4.31,5.99-5.49,6.46-4.11,29.58-8.71,38.1-10.48,3.9-.81,18.35-2.42,20.21-3.37,2.86-1.46,5.34-7.62,11.04-8.96,29.16-6.9,49.61-16.07,75.22,6.61,26.66,23.62,51.31,87.98,67.23,121.37,4.02,8.44,8.78,19.57,13.36,27.36.23.4.67,1.2,1.17,2.05,1.13,1.94,3.31,3.03,5.54,2.77,12.86-1.47,27.18-4.79,32.98-17.53,9.55-20.99-9.07-41.46-13.8-61.05-2.67-11.08-2.27-28.29,2.46-38.87,1.74-3.88,4.61-5.16,6.09-8.91,2.77-6.98,5.43-27.97,10.43-31.72,3.49-2.61,11.11-1.07,12.74,2.77,1.91,4.52-6.03,23.32-6.68,30.44-1.07,11.7,2.79,30.09,6.15,41.53,6.55,22.3,21.59,40.87,16.27,65.9-5.03,23.68-26.5,39.11-48.83,45.37-3.16.89-4.94,4.24-3.85,7.34,11.33,32.46,28.53,62.66,37.54,96,17.32,64.1,18.07,132.01-3.98,195.07-11.48,32.82-29.89,66.22-70.11,61.18-4.58-.57-9.85-2.02-15.07-2.79-9.88-1.47-9.37-3.26-16.08-8.19-2.38-1.74-9.78-1.32-13.13-1.89-46.91-8.01-53.73-56.72-65.03-95.15-.67-2.28-2.69-3.92-5.06-4.07-14.44-.94-24.44-9.19-24.86-23.71-.07-2.58-1.82-4.88-4.31-5.54-9.95-2.65-17.39-12.38-17.96-22.63-.15-2.73-2.27-5.01-4.99-5.32-11.98-1.36-21.73-10.86-22.28-22.75-.14-2.95-2.41-5.41-5.37-5.51-13.06-.48-22.59-8.27-25.04-21.13-.6-3.14-3.59-5.22-6.73-4.59-6.28,1.25-11.89,2.97-19.12,1.8-8.68-1.4-10.61-4.9-17.11-7.89-7.18-3.31-7.45,1.22-12.68,4.72-7.44,4.97-19.57,7.44-27.06,1.44-.11-.09-.21-.18-.31-.28-1.66-1.7-4.07-2.37-6.3-1.55-15.33,5.63-34.95,6.05-44.89-8.83-4.1-6.14-6.67-14.69-5.64-22.1.24-1.72,1.98-4.51,1.76-5.49-.29-1.31-3.61-4.54-4.55-6.14-11.91-20.25-2.58-54.55,5.24-75.23,2.4-6.34,5.36-11.59,8.65-17.18.68-1.15.93-2.49.72-3.8-5.15-32.36-22.72-97,4.53-120.84,9.7-8.49,36.16-13.68,48.98-13.95,2.32-.05,7.47,1.73,9.46.58Z"/>
    <path d="M498.51,649.97c.41.7,6.39,4.09,8.02,6.61,2.28,3.52,5.33,26.17,6.01,31.85.31,2.6-.41,6.13.24,8.33.48,1.62,4.84,4.59,6.31,8.69,2.09,5.83,0,10.64.8,13.44.41,1.42,4.31,4.15,5.49,5.99,4.11,6.46,8.71,29.58,10.48,38.1.81,3.9,2.42,18.35,3.37,20.21,1.46,2.86,7.62,5.34,8.96,11.04,6.9,29.16,16.07,49.61-6.61,75.22-23.62,26.66-87.98,51.31-121.37,67.23-8.44,4.02-19.57,8.78-27.36,13.36-.4.23-1.2.67-2.05,1.17-1.94,1.13-3.03,3.31-2.77,5.54,1.47,12.86,4.79,27.18,17.53,32.98,20.99,9.55,41.46-9.07,61.05-13.8,11.08-2.67,28.29-2.27,38.87,2.46,3.88,1.74,5.16,4.61,8.91,6.09,6.98,2.77,27.97,5.43,31.72,10.43,2.61,3.49,1.07,11.11-2.77,12.74-4.52,1.91-23.32-6.03-30.44-6.68-11.7-1.07-30.09,2.79-41.53,6.15-22.3,6.55-40.87,21.59-65.9,16.27-23.68-5.03-39.11-26.5-45.37-48.83-.89-3.16-4.24-4.94-7.34-3.85-32.46,11.33-62.66,28.53-96,37.54-64.1,17.32-132.01,18.07-195.07-3.98-32.82-11.48-66.22-29.89-61.18-70.11.57-4.58,2.02-9.85,2.79-15.07,1.47-9.88,3.26-9.37,8.19-16.08,1.74-2.38,1.32-9.78,1.89-13.13,8.01-46.91,56.72-53.73,95.15-65.03,2.28-.67,3.92-2.69,4.07-5.06.94-14.44,9.19-24.44,23.71-24.86,2.58-.07,4.88-1.82,5.54-4.31,2.65-9.95,12.38-17.39,22.63-17.96,2.73-.15,5.01-2.27,5.32-4.99,1.36-11.98,10.86-21.73,22.75-22.28,2.95-.14,5.41-2.41,5.51-5.37.48-13.06,8.27-22.59,21.13-25.04,3.14-.6,5.22-3.59,4.59-6.73-1.25-6.28-2.97-11.89-1.8-19.12,1.4-8.68,4.9-10.61,7.89-17.11,3.31-7.18-1.22-7.45-4.72-12.68-4.97-7.44-7.44-19.57-1.44-27.06.09-.11.18-.21.28-.31,1.7-1.66,2.37-4.07,1.55-6.3-5.63-15.33-6.05-34.95,8.83-44.89,6.14-4.1,14.69-6.67,22.1-5.64,1.72.24,4.51,1.98,5.49,1.76,1.31-.29,4.54-3.61,6.14-4.55,20.25-11.91,54.55-2.58,75.23,5.24,6.34,2.4,11.59,5.36,17.18,8.65,1.15.68,2.49.93,3.8.72,32.36-5.15,97-22.72,120.84,4.53,8.49,9.7,13.68,36.16,13.95,48.98.05,2.32-1.73,7.47-.58,9.46Z"/>
    <path class="cls-1" d="M111.61,142.01c-13.76,51.27-14.2,105.99-1.06,157.44,6.22,24.35,15.97,47.63,26.23,70.51,4.66,10.38,9.5,20.67,14.28,30.99,2.39,5.15,4.76,10.31,7.08,15.48,1.04,2.32,2.08,4.65,3.1,6.99.57,1.29,1.12,2.59,1.69,3.89,2.38,5.45-2.15-5.26.11.24,4.91,11.93,9.49,23.99,13.16,36.37,1.74,5.89,3.29,11.83,4.6,17.83.71,3.28,1.35,6.57,1.91,9.88.19,1.11.35,2.22.53,3.32.4,2.77.34,2.22-.2-1.66.14,1.12.27,2.24.39,3.36.78,6.87,2.28,12.68,7.35,17.75,4.35,4.35,11.5,7.63,17.75,7.35,12.34-.55,26.68-11.13,25.1-25.1-2.73-24.14-8.51-47.22-17.18-69.9-8.77-22.93-19.29-45.12-29.6-67.38-2.27-4.9-4.52-9.81-6.74-14.74-1.16-2.59-2.32-5.19-3.45-7.79-.45-1.04-.9-2.09-1.35-3.13-2.06-4.7,2.05,4.97-.45-1.06-4.33-10.45-8.33-21.04-11.72-31.83-3.65-11.61-6.54-23.45-8.65-35.44-.48-2.73-.89-5.46-1.32-8.19-.99-6.3.59,5.71-.07-.64-.13-1.22-.28-2.44-.41-3.67-.72-6.72-1.19-13.47-1.43-20.23-.47-13.52.02-27.07,1.47-40.51.16-1.53.37-3.05.53-4.58.24-1.92.14-1.22-.29,2.1.17-1.22.35-2.43.54-3.65.47-3.04.99-6.07,1.56-9.09,1.36-7.25,3.04-14.44,4.95-21.56,3.4-12.67-4.26-27.85-17.53-30.88-13.2-3.01-27.24,3.96-30.88,17.53h0Z"/>
    <path class="cls-1" d="M277.18,224.35c-28.12-8.66-61.61-4.42-85.67,13.01-24.72,17.91-40.55,44.16-43.06,74.8-1.23,15.03,2.32,31.6,10.58,44.32,8.4,12.92,20.32,22.57,33.48,30.35,24.6,14.57,50.48,27.25,75.69,40.75,29.69,15.9,59.39,31.79,89.08,47.69,11.57,6.2,27.85,3.28,34.34-9.01,6.16-11.66,3.36-27.73-9.01-34.34-47.74-25.56-95.48-51.12-143.23-76.68-10.2-5.46-20.74-10.6-30.18-17.33-1.88-1.34-2.89-3.53.72.61-.63-.72-1.63-1.37-2.36-2.02-1.93-1.73-3.64-3.62-5.4-5.5-3.64-3.87,2.74,4.84.23.14-.49-.91-1.1-1.77-1.61-2.67l-.78-1.47c-1.16-2.47-.97-1.99.56,1.44-.27.03-1.4-4.51-1.46-4.74.06.26-.69-3.24-.7-3.24l.41,3.39c-.13-1.1-.22-2.21-.28-3.32-.15-2.8.03-5.56.13-8.36.14-3.99.48,1.69-.28,1.68.01,0,.91-4.58.99-4.92.58-2.43,1.29-4.82,2.12-7.18l.51-1.41c.98-2.48.7-1.87-.83,1.84.48-.51,1.01-2.18,1.27-2.71,1.1-2.24,2.33-4.42,3.65-6.53.66-1.06,1.35-2.1,2.06-3.12,1.8-2.59,2.68-1.31-.79.88,2.12-1.34,4.2-4.88,6.02-6.67.71-.7,1.44-1.39,2.17-2.06.59-.54,5.58-4.62,2.06-1.87s.54-.32,1.09-.68c1.24-.84,2.5-1.64,3.79-2.41,1.38-.82,2.79-1.59,4.23-2.31l1.49-.73c2.48-1.12,2-.94-1.43.55,3.15-.54,6.34-2.24,9.48-3.02,1.07-.27,2.15-.51,3.24-.73,6.2-1.26.26.55-.12-.13.22.39,8.6-.49,9.94-.47s2.76.09,4.14.19c6.57.48-4.37-1,.73.01,3.27.65,6.47,1.39,9.66,2.38,12.55,3.87,27.93-4.59,30.88-17.53,3.1-13.6-4.09-26.74-17.53-30.88h0Z"/>
    <path class="cls-1" d="M728.67,256.71c-29.33-3.2-58.66-6.41-87.98-9.61-6.06-.66-14.72,3.38-18.74,7.76-4.93,5.37-7.28,11.42-7.76,18.74-3.05,46.15-2.21,92.52,2.66,138.51,2.44,23.03,4.62,46.41,13.7,67.92,8.74,20.71,24.3,37.43,44.31,47.79s40.61,15,61.99,18.92c10.75,1.97,20.91-.5,27.85-9.5,6.22-8.05,7.86-20.53,2.07-29.43-4.1-6.31-7.87-12.82-11.21-19.56-1.61-3.25-2.99-6.59-4.55-9.86-.05-.11,2.08,5.22,1.07,2.47-.29-.78-.62-1.55-.92-2.33-.8-2.08-1.57-4.17-2.3-6.27-2.47-7.1-4.53-14.35-6.17-21.69-.79-3.53-1.48-7.09-2.08-10.66-.27-1.65-.45-3.32-.76-4.96-.03-.18.69,5.9.41,2.9-.13-1.39-.32-2.77-.45-4.15-.7-7.21-1.01-14.45-.91-21.69.05-3.62.2-7.24.46-10.85.14-1.94.3-3.89.5-5.82.12-1.16.89-7.55.33-3.11s.39-2.18.55-3.08c.29-1.65.6-3.29.93-4.93.81-3.99,1.76-7.95,2.75-11.9,1.97-7.86,4.14-15.67,5.88-23.59,4.49-20.38,6.89-42.77-1.17-62.62-2.7-6.66-5.74-12.07-12.18-15.84-5.68-3.32-14.05-4.73-20.42-2.67s-12.6,6.05-15.84,12.18-5.29,13.96-2.67,20.42c1.41,3.47,2.53,7.01,3.26,10.68.16.82.22,1.71.44,2.51-1.62-5.89-.46-4.02-.39-1.98s.18,3.97.15,5.97-.13,4.02-.29,6.02c-.07.87-.2,1.73-.25,2.6-.2,2.98.4-2.76.39-2.7-1.16,4.23-1.55,8.81-2.52,13.1-3.72,16.3-8.43,32.17-10.66,48.79-4.4,32.76-1.8,66.51,8.56,98.01,5.92,18,13.98,35.48,24.32,51.37l29.93-38.93c-8.36-1.53-16.71-3.14-24.96-5.21-3.89-.98-7.76-2.05-11.58-3.27-1.89-.6-3.78-1.24-5.65-1.92-.93-.34-1.85-.7-2.78-1.04-4.3-1.61,4.52,2.06,1.57.7-3.53-1.63-7.01-3.3-10.37-5.28-1.86-1.1-3.65-2.3-5.45-3.5-1.68-1.12-2.46-2.83,1.92,1.58-.83-.84-1.86-1.52-2.75-2.3-1.44-1.27-2.83-2.59-4.16-3.97-.7-.73-4.98-6.11-2.2-2.27s-1.55-2.44-2.04-3.25c-1.29-2.1-2.35-4.29-3.5-6.47-2.06-3.89.55,1.25.7,1.84-.26-1.01-.81-2.07-1.17-3.07-.74-2.07-1.42-4.16-2.03-6.27-1.38-4.79-2.45-9.67-3.33-14.58-.39-2.19-.75-4.39-1.08-6.59-.16-1.09-.28-2.21-.48-3.3.08.46.85,6.69.29,2.11-.67-5.49-1.35-10.99-1.94-16.49-2.32-21.69-3.76-43.48-4.31-65.29-.62-24.74-.08-49.5,1.55-74.2l-26.5,26.5c29.33,3.2,58.66,6.41,87.98,9.61,6.32.69,14.43-3.46,18.74-7.76,4.6-4.6,8.06-12.14,7.76-18.74-.31-6.85-2.56-13.96-7.76-18.74-5.49-5.04-11.36-6.96-18.74-7.76h0Z"/>
    <path class="cls-1" d="M655.5,304.33c6.68,56.62,13.36,113.24,20.04,169.86,16.46-4.46,32.92-8.92,49.38-13.38-14.79-24.19-29.59-48.39-44.38-72.58-7.23-11.82-24.06-17.37-36.26-9.51-11.87,7.65-17.24,23.6-9.51,36.26,14.79,24.19,29.59,48.39,44.38,72.58,5.9,9.66,18.69,15.81,29.93,12.18,4.37-1.41,8.31-3.71,11.69-6.82,4.34-3.99,8.47-12.72,7.76-18.74-6.68-56.62-13.36-113.24-20.04-169.86-.86-7.27-2.39-13.36-7.76-18.74-4.6-4.6-12.14-8.06-18.74-7.76-12.96.58-28.24,11.76-26.5,26.5h0Z"/>
    <path class="cls-1" d="M731.41,183.95l-78.61-6.56,7.04,52.05c17.98-6.7,35.96-13.39,53.94-20.09,4.57-1.7,9.14-3.4,13.71-5.11,1.83-.68,3.65-1.38,5.49-2.04,1.07-.41,2.16-.78,3.26-1.12,2.89-.7,2.21-.66-2.04.12-8.04.24-14.57-5.45-16.81-12.64,1.34,4.32-.17-6.85-.3-2.04.79-4.67.79-5.53,0-2.6,1.69-3.75,1.88-4.36.57-1.82-1.28,1.82-2.39,3.78-3.66,5.62-7.93,11.42-2.47,29.93,9.51,36.26,13.53,7.15,27.8,2.68,36.26-9.51,9.89-14.24,13.87-31.47,5.61-47.5-4.39-8.52-13.09-15.53-22.49-17.67s-18.09-.4-26.74,2.82c-23.47,8.74-46.93,17.48-70.4,26.21-12.48,4.65-20.83,15.29-18.98,29.08,1.84,13.68,12.7,21.87,26.03,22.98l78.61,6.56c13.85,1.16,27.1-13.01,26.5-26.5-.69-15.35-11.66-25.26-26.5-26.5h0Z"/>
    <path class="cls-1" d="M195.38,776c-26.73,10.74-51.09,26.37-70.42,47.97s-36.23,49.05-40.57,78.2c-2.76,18.53-.87,35.81,6.95,52.87,5.16,11.26,13.48,21.51,23.05,29.36,22.04,18.09,49.65,27.89,78.26,27.4,37.82-.64,72.53-15.99,106.37-31.29,5.69-2.57,10.59-10.07,12.18-15.84,1.75-6.34.96-14.79-2.67-20.42-8.44-13.09-22.7-15.64-36.26-9.51-6.2,2.8-12.41,5.57-18.64,8.27-4.35,1.89.58-.17,1.19-.5-1.6.86-3.48,1.44-5.17,2.11-3.45,1.38-6.92,2.71-10.41,3.97-5.79,2.09-11.64,4-17.58,5.62-3.24.89-6.51,1.69-9.79,2.39-1.49.32-2.98.62-4.48.89-.92.17-8.22.81-3.69.65s-1.32.09-1.92.15c-1.82.16-3.64.29-5.47.38-3.06.14-6.12.18-9.18.08-2.31-.07-4.6-.28-6.9-.48-5.33-.45,6.78,1.24,1.53.18-1.37-.28-2.75-.5-4.12-.79-4.8-1.04-9.52-2.45-14.1-4.21-2.24-.86-3.89-2.7,1.81.79-1.16-.71-2.56-1.18-3.78-1.8-2.48-1.25-4.9-2.61-7.25-4.09-1.94-1.22-3.73-2.69-5.66-3.9,7.14,4.46.87.55-.89-1.11-1.64-1.54-3.21-3.15-4.69-4.83-1.57-1.77-3-5.14.77,1.21-.67-1.13-1.56-2.17-2.29-3.28-1.34-2.06-2.44-4.21-3.61-6.36s-.68-4.29.79,2.06c-.3-1.27-.94-2.55-1.33-3.8-.59-1.9-.64-5-1.61-6.61l.43,3.5c-.11-.89-.19-1.78-.24-2.67-.15-2.08-.19-4.16-.13-6.24.04-1.49.22-2.97.28-4.45.15-3.88-1.39,6.71-.1.84.65-2.94,1.22-5.87,2.05-8.77.92-3.21,2.12-6.29,3.21-9.43,1.28-3.69-2.82,5.94-.21.49.85-1.78,1.66-3.57,2.55-5.34,2.42-4.81,5.1-9.49,8.02-14.02,1.39-2.16,2.83-4.28,4.33-6.36.88-1.22,1.97-2.42,2.75-3.71l-2.25,2.93c.64-.8,1.28-1.6,1.94-2.39,3.93-4.75,8.13-9.26,12.58-13.52,2.22-2.13,4.51-4.19,6.86-6.19,1.17-1,2.38-1.96,3.56-2.94,4.09-3.4-4.51,3.25-.49.39,5.03-3.58,10.09-7.02,15.46-10.09,2.9-1.65,5.85-3.21,8.84-4.67,1.15-.56,2.31-1.11,3.48-1.64.93-.43,1.87-.84,2.81-1.25-3.97,1.66-4.66,1.96-2.06.91,6.65-2.67,12.08-5.76,15.84-12.18,3.32-5.68,4.73-14.05,2.67-20.42-4.01-12.4-18.83-24.04-32.6-18.51h0Z"/>
    <path class="cls-1" d="M188.44,823.58l-3.29-2.44c1.85,1.97,1.33,1.19-1.56-2.33.1.35,1.27,2.2,1.37,2.28-2.51-2.07-2.05-5.78-.96-1.96.91,3.16-.75,2.82-.06-2.37-.17,1.3-.39,8.54.26,3.32s-.18-.52-.41.47c-.74,2.06-.66,1.98.23-.24.97-2.19.98-2.3.03-.34-.68,1.07-1.39,2.23-2,3.34-1.68,3.05,4.52-4.88.83-.99-1.64,1.73-3.21,3.48-4.98,5.08-.76.69-2.58,1.71-3,2.58,1.27-2.6,4.17-3.02,1.46-1.16-2.91,1.98-5.79,3.97-8.76,5.87-22.43,14.37-43.56,31.56-50.78,58.52-7.65,28.55,3.46,60.49,30.25,74.67,24.53,12.99,51.04,10.32,77.25,5.01,3.69-.75,7.38-1.53,11.08-2.22,1.23-.23,2.47-.46,3.7-.67,1.24-.21,2.47-.42,3.71-.61l-3.32.43c4.61-1.77,12.1-.93,16.96-.59,2.86.2,5.31,1.88-1.18-.29,1.35.45,2.93.51,4.32.83.94.22,1.89.46,2.82.72s6.86,2.54,2.27.56-.03.06.72.46c1.26.66,2.43,1.46,3.66,2.17,3.53,2.04-1.74-1.12-1.96-1.59.64,1.32,3.04,2.89,4.07,4.03,8.8,9.84,24.91,9.71,34.8,2.07,10.36-8,13.51-22.65,6.83-34.19-9.77-16.87-26.7-26.07-45.81-27.53v53c.89-.12,1.78-.16,2.67-.13-4.82-.83-5.85-.94-3.11-.32,4.39,1.16-5.54-3.11-1.47-.47-5.98-3.88-3.15-2.12-1.32-.65-2.66-3.68-3.29-4.37-1.89-2.06-1.64-4.35-2.07-5.21-1.28-2.58,3.68,13.36,18.98,22.92,32.6,18.51,13.66-4.42,22.46-18.28,18.51-32.6-5.24-19.02-24.4-34.57-44.7-32.69-7.17.66-13.49,2.51-18.74,7.76-4.6,4.6-8.06,12.14-7.76,18.74.68,15.26,11.66,25.36,26.5,26.5,2.86.24,1.98.12-2.63-.35.97.21,1.92.48,2.86.8-4-1.82-4.74-2.13-2.23-.91.66.34,1.31.71,1.93,1.12,1.69,1.09.91.44-2.34-1.97.77.63,1.49,1.3,2.19,2.01,1.84,2.05,1.4,1.41-1.3-1.94.57.81,1.09,1.66,1.56,2.53,13.87-10.7,27.75-21.41,41.62-32.11-16.99-18.99-44.73-24.76-69.14-21.84-14.23,1.7-28.11,5-42.22,7.37-6.2,1.04,4.58-.36.53-.07-1.56.11-3.12.32-4.68.41-2.44.15-4.88.2-7.32.12-.98-.03-1.97-.08-2.95-.15-.87-.06-5.85-.66-.89,0s.02-.08-.84-.26c-1.43-.3-2.86-.65-4.27-1.06-1.17-.34-2.3-.78-3.45-1.13-3.35-1.02,6.24,3.1,1.69.71-1.9-1-4.14-3.02-6.1-3.63.58.18,4.79,4.39,2.07,1.47-.79-.85-1.66-1.72-2.5-2.53-2.43-2.33,3.72,5.86,1.02,1.3-.73-1.22-1.41-2.84-2.23-3.99,3.2,4.46,1.6,4.11.76,1.36-.37-1.22-.61-2.46-.94-3.7-.79-3.01,1.39-.86.3,2.49.31-.96-.15-2.79-.15-3.84s.46-2.85.18-3.85c1.01,3.55-1.04,5.42-.29,2.46.38-1.5.67-3,1.12-4.49.67-2.21,3.17-5.44-.43.42,1.38-2.25,2.37-4.74,3.8-6.99.54-.84,1.38-1.77,1.79-2.64-2.36,5.03-2.4,2.97-.69.96,1.56-1.83,3.22-3.58,4.96-5.25,1.16-1.11,2.4-2.14,3.58-3.23,3.72-3.44-4.94,3.44-.2.09,10.81-7.65,22.3-14.11,32.44-22.73,12.95-11.01,21.35-25.96,23.16-42.85.73-6.77-.06-14.07-2.28-20.5-3.81-11.02-10.14-18.32-19.29-25.3-5.08-3.88-14.58-4.28-20.42-2.67-6.15,1.69-12.81,6.45-15.84,12.18-3.25,6.15-4.88,13.6-2.67,20.42,2.27,7.01,6.38,11.41,12.18,15.84h0Z"/>
    <path class="cls-1" d="M180.86,883.13c13.86,0,27.14-12.19,26.5-26.5-.64-14.36-11.64-26.5-26.5-26.5-13.86,0-27.14,12.19-26.5,26.5.64,14.36,11.64,26.5,26.5,26.5h0Z"/>
    <path class="cls-1" d="M85.39,135.49c-23.93,47.74-22.75,102.49-8.97,153.07,13.49,49.49,38.14,94.91,54.36,143.44,4.5,13.46,8.36,27.14,11.12,41.06.6,3.01,1.14,6.03,1.63,9.06.25,1.54.4,7.4.16.61.06,1.79.45,3.69.64,5.48.77,7.34,1.13,14.7,1.14,22.08,0,13.13,11.54,25.71,25.1,25.1s25.11-11.03,25.1-25.1c-.04-52.07-18.57-100.8-38.43-148.09-9.69-23.07-19.56-46.12-27.31-69.94-3.79-11.67-7.09-23.51-9.53-35.54-.52-2.55-1-5.1-1.43-7.66-.29-1.71-.54-3.43-.82-5.14-.4-2.47-1.47-2.07.18,1.51-.96-2.1-.73-6.33-.93-8.63-.3-3.46-.53-6.92-.67-10.39-.25-6.33-.22-12.68.15-19,.18-3.15.45-6.29.8-9.42.22-1.99,1.51-5.28-.12.72.43-1.59.54-3.44.83-5.07,1.11-6.16,2.6-12.26,4.48-18.23,1.03-3.26,2.22-6.45,3.44-9.65,1.68-4.4-.57.96-.54,1.26-.15-1.48,2.28-4.86,2.96-6.2,5.88-11.73,3.5-27.74-9.01-34.34-11.39-6.02-28.06-3.53-34.34,9.01h0Z"/>
    <path class="cls-1" d="M280.94,263.46c-14.72-2.24-29.12-4.12-43.96-2.13-15.03,2.02-28.23,7.46-39.67,17.54-11.21,9.88-17.95,23.97-19.31,38.71-1.31,14.24,4.55,27.98,13.87,38.49,15.07,17.02,38.67,22.42,59.08,30.14,2.68,1.02,5.36,2.06,8.02,3.13,1.06.43,2.12.87,3.19,1.3,5.59,2.23-5.16-2.28.35.14s10.5,4.64,15.68,7.11c10.35,4.95,20.51,10.32,30.44,16.08,11.42,6.62,22.53,13.77,33.3,21.41,2.57,1.83,5.13,3.68,7.66,5.57,1.15.86,2.29,1.73,3.44,2.58,4.39,3.28-3.58-2.86.37.28,5.39,4.29,10.72,8.64,15.94,13.14,9.93,8.57,25.87,10.49,35.5,0,8.64-9.41,10.62-26.34,0-35.5-32.94-28.41-69.47-52.56-109.11-70.55-10.85-4.93-21.87-9.53-33.04-13.71-4.6-1.72-9.24-3.32-13.88-4.93-1.72-.6-3.44-1.21-5.15-1.84-1.08-.4-2.16-.81-3.23-1.23-5.19-2.04,3.21,1.5.88.39-3.49-1.66-6.95-3.31-10.19-5.43-.62-.4-1.47-1.17-2.18-1.49,4.95,2.23,3.4,2.97,1.55,1.08-.73-.75-1.51-1.51-2.27-2.22-2.93-2.73,2.36,4.13,1.16,1.66-.43-.89-1.12-1.84-1.65-2.67-1.37-2.12.71-1.9.95,2.51-.03-.53-.56-1.9-.78-2.5-1.37-3.65.46,1.81.19,2.54.27-.72-.02-2.59-.05-3.43-.12-3.17-1.74,6.5-.23,1.94.28-.85.5-1.79.75-2.65,1.24-4.27-2.96,4.89-.3.9.51-.76.99-1.65,1.44-2.43,2.43-4.19-3.93,3.98-.46.54.68-.68,1.3-1.41,1.99-2.09,1.68-1.65,4.64-2.89-.68.18,2.08-1.2,4.01-2.6,6.14-3.74,3.83-2.04-1.73.88-1.72.74.02-.42,4.33-1.35,5.09-1.54,1.15-.28,2.31-.47,3.45-.75,5.37-1.29-4.77.11.35,0,2.98-.07,5.93-.27,8.92-.2,3.3.09,6.6.34,9.89.69,1.2.13,2.39.28,3.59.41,1.93.24,1.2.15-2.21-.29,1.18.17,2.37.35,3.55.53,6.92,1.05,13.06,1.15,19.34-2.53,5.21-3.05,10.17-9.02,11.54-15,2.73-11.96-3.65-28.77-17.53-30.88h0Z"/>
    <path class="cls-1" d="M291.86,602.03c-12.39,46.22-12.8,95.51-1,141.91,5.56,21.87,14.33,42.77,23.53,63.32,4.16,9.29,8.5,18.51,12.78,27.75,2.02,4.35,4.02,8.71,6,13.09,1.04,2.31,2.07,4.63,3.09,6.95.85,1.93,4.14,10.41,1.31,2.97,3.98,10.45,8.21,20.72,11.43,31.44,1.68,5.58,3.16,11.22,4.39,16.92.59,2.72,1.12,5.45,1.59,8.19.19,1.1.34,2.2.53,3.3.31,2.07.19,1.1-.36-2.89.14,1.11.27,2.23.4,3.34.82,7.25,2.41,13.39,7.76,18.74,4.6,4.6,12.14,8.06,18.74,7.76,13.02-.58,28.17-11.75,26.5-26.5-2.49-21.94-7.61-42.86-15.51-63.48s-17.29-40.47-26.54-60.43c-2.02-4.36-4.03-8.73-6-13.12-1.04-2.32-2.07-4.64-3.09-6.98-.45-1.04-.9-2.07-1.35-3.11-2.07-4.78,2.16,5.31.04.09-3.71-9.13-7.25-18.3-10.22-27.7-3.28-10.37-5.88-20.95-7.78-31.66-.47-2.65-.62-5.54-1.31-8.14.16.62.77,6.37.23,1.59-.14-1.21-.29-2.43-.41-3.64-.61-5.77-1.03-11.57-1.25-17.37-.46-12.21-.03-24.46,1.27-36.61.13-1.21.29-2.43.42-3.64.25-2.05.14-1.21-.35,2.5.13-.91.26-1.81.4-2.72.46-3.02.97-6.03,1.54-9.03,1.2-6.31,2.66-12.55,4.32-18.75,3.58-13.38-4.49-29.4-18.51-32.6-13.93-3.17-28.76,4.18-32.6,18.51h0Z"/>
    <path class="cls-1" d="M428.91,638.26c-25.84-7.92-56.72-4.16-78.96,11.69-23.33,16.63-38.32,41.21-40.71,69.96-1.19,14.27,2.16,30.13,10.1,42.17,7.68,11.64,18.19,20.44,30.05,27.61,21.62,13.07,44.64,24.16,66.91,36.09,26.85,14.38,53.71,28.75,80.56,43.13,12.22,6.54,29.4,3.47,36.26-9.51,6.5-12.31,3.54-29.27-9.51-36.26-42.03-22.5-84.06-45.01-126.09-67.51-8.96-4.8-18.22-9.31-26.63-15.07-.59-.41-4.76-3.51-1.06-.66,3.26,2.51.49.34-.29-.35-1.73-1.51-3.3-3.13-4.88-4.79s-1.04-2.89,1.3,1.81c-.43-.86-1.17-1.7-1.68-2.54.06.1-1.47-2.82-1.56-2.82,1.49,3.79,1.73,4.34.73,1.68l-.51-1.6c-.32-1.07-.51-2.19-.83-3.26-1.63-5.4.18,4.85.09,1.2-.06-2.56-.14-5.07-.09-7.63.04-1.97,1.15-4.11-.41,1.97.28-1.08.37-2.25.6-3.35.53-2.53,1.22-5.03,2.06-7.47.24-.7.95-2.03,1.05-2.84-.58,4.97-1.89,4.27-.52,1.48,1-2.04,2.1-4.03,3.3-5.96,1.05-1.69,2.53-3.24,3.43-5-2.54,4.94-2.78,3.4-1.29,1.83,1.05-1.1,2.02-2.26,3.09-3.34,1.7-1.71,4.21-3.19,5.62-5.07-3.05,4.06-3.57,2.67-1.1,1,1.05-.71,2.11-1.39,3.19-2.04,1.15-.68,2.31-1.32,3.5-1.93,4.34-2.23.44.56-1.07.26,1.54.3,6.13-2.16,7.84-2.61,1.33-.35,2.67-.66,4.03-.93,6.08-1.22-3.15.12-.51-.04s5.48-.39,8.26-.33c1.1.02,2.2.07,3.3.15,6.18.43-3.06-.72-.48-.16,2.98.65,5.9,1.25,8.83,2.15,13.25,4.06,29.48-4.83,32.6-18.51s-4.32-28.25-18.51-32.6h0Z"/>
    <path class="cls-1" d="M268.98,595.24c-21.65,43.28-20.98,92.66-8.58,138.6,11.86,43.92,33.69,84.21,48.17,127.2,3.97,11.78,7.41,23.75,9.9,35.93.62,3.03,1.18,6.07,1.68,9.12.08.52,1.2,6.55.34,1.98-.8-4.28.11,1.05.21,1.99.74,6.77,1.08,13.57,1.09,20.38.02,13.86,12.18,27.14,26.5,26.5s26.52-11.64,26.5-26.5c-.06-46.82-16.58-90.55-34.45-133.07-8.54-20.32-17.22-40.62-24.06-61.6-3.4-10.43-6.35-21.02-8.54-31.78-.46-2.26-.88-4.52-1.27-6.8-.19-1.14-.36-2.28-.56-3.42-1.03-5.85.55,4.94.11,1.04-.59-5.17-1.1-10.33-1.34-15.53-.26-5.75-.26-11.5.05-17.25.15-2.86.38-5.71.69-8.56l.09-.85c.36-2.92.26-2.27-.28,1.95.62-.86.51-3.2.69-4.21,1-5.59,2.35-11.12,4.06-16.54.86-2.72,1.89-5.35,2.85-8.03,1.29-3.58-2.89,6.04-.34.82.75-1.54,1.47-3.1,2.23-4.64,6.19-12.38,3.71-29.28-9.51-36.26-12.01-6.35-29.64-3.73-36.26,9.51h0Z"/>
    <path class="cls-1" d="M432.25,673.02c-12.39-1.88-24.87-3.81-37.41-2.41-15.34,1.71-28.82,6.61-40.57,16.82-8.79,7.64-16.05,19.35-17.89,30.94-2.55,16.15,1.38,30.77,12.02,43.24,13.63,15.99,35.18,21.17,54.03,28.24,2.43.91,4.84,1.85,7.25,2.81,1.07.43,2.14.87,3.2,1.3,4.26,1.71-1.01-.43-1.55-.67,4.96,2.3,10.02,4.39,14.96,6.75,9.36,4.47,18.53,9.31,27.5,14.52,9.96,5.79,19.66,12.02,29.07,18.68,2.35,1.66,4.68,3.36,6.99,5.07.92.69,1.85,1.38,2.77,2.07.69.52,1.38,1.04,2.06,1.57-2.85-2.21-3.5-2.71-1.95-1.49,4.72,3.79,9.41,7.59,13.99,11.55,10.49,9.04,27.31,11.08,37.48,0,9.12-9.94,11.21-27.81,0-37.48-29.23-25.2-61.52-46.73-96.64-62.81-9.93-4.55-20.03-8.79-30.25-12.66-3.98-1.51-8-2.93-12.02-4.32-2.99-1.03-8.75-1.99-11.1-4.11.04.04,6.34,2.97,2.47.98-.83-.43-1.68-.8-2.51-1.22-1.43-.73-2.83-1.51-4.19-2.35-.76-.47-1.49-1-2.26-1.48-2.68-1.68,4.24,4.08,2.22,1.72-.41-.47-1-.87-1.45-1.31-2.36-2.27-1.57-3.47.76,1.52-.53-1.14-3.01-5.7-1.21-1.27,2.46,6.07-.93-6.33-.02.21.63,4.5.41,1.19.27.06-.3-2.43-.23,3.52-.6,3.62-.02,0,.58-2.36.64-2.69.68-1.95.55-1.77-.38.55-1.02,2.29-1.08,2.49-.18.61.37-.61.69-1.24,1.06-1.84,2.31-3.74.13.38-1.2,1.3.66-.46,1.36-1.53,1.96-2.13,1.96-1.96,4.47-2.56-.94.36,1.67-.91,3.3-2.05,4.95-3.02,3.52-2.06-1.52.94-2.04.86.86.13,3.25-1.02,4.24-1.27,1.14-.29,2.31-.46,3.45-.74,3.23-.78-5.87.38-.9.17,2.69-.11,5.34-.23,8.03-.15s5.4.28,8.09.55c1.17.12,2.43.39,3.59.41l-3.47-.47c1.18.17,2.37.35,3.55.53,7.31,1.11,13.78,1.21,20.42-2.67,5.5-3.22,10.74-9.52,12.18-15.84,2.88-12.63-3.85-30.37-18.51-32.6h0Z"/>
    <path class="cls-1" d="M852.99,674.15c-18.48-26.06-44.24-50.75-76.85-56.76-33.15-6.11-67.35,6.34-86.27,34.93-19.66,29.71-8.69,68.48,16.36,91.12,13.54,12.24,29.15,19.91,46.21,26.1,7.6,2.75,15.34,5.07,23.04,7.52,3.43,1.09,6.84,2.2,10.24,3.38,1.98.69,3.95,1.4,5.9,2.14.84.32,1.66.68,2.51.98,3.56,1.28-5.11-2.28-2.11-.92,6.02,2.74,11.91,5.65,17.59,9.05,2.51,1.51,4.99,3.08,7.41,4.73,1.42.96,2.81,1.94,4.2,2.95.59.43,1.18.87,1.77,1.3,2.86,2.1-1.24-.89-1.88-1.46,4.73,4.26,9.71,8.16,14.23,12.68,2.25,2.25,4.43,4.57,6.54,6.94.98,1.1,1.94,2.21,2.88,3.33.64.76,4.92,6.16,2.08,2.45s.41.58,1.02,1.42c1.01,1.38,2,2.78,2.96,4.2,1.79,2.63,3.51,5.31,5.14,8.03,3.4,5.67,6.38,11.54,9.13,17.55,1.95,4.26-2.08-5.3-.39-.93.53,1.37,1.07,2.73,1.58,4.1,1.18,3.21,2.26,6.46,3.23,9.74,1.88,6.36,3.2,12.8,4.34,19.33.49,2.85-.65-3.61-.45-3.36.27.35.19,1.79.23,2.23.14,1.49.25,2.99.33,4.48.18,3.49.18,6.99-.03,10.48-.07,1.12-.68,6.39-.03,1.65.69-4.97-.26,1.15-.5,2.27-.31,1.42-.66,2.83-1.07,4.23-.68,2.32-3.47,7.42.23.43-1.35,2.54-2.6,5.04-4.12,7.5-2.35,3.78,3.74-4.05.61-.83-1.23,1.27-3.06,2.59-4.09,4-.12.17,4.87-3.43,2.63-2.01-.58.37-1.13.79-1.71,1.17-1.35.87-2.82,1.53-4.18,2.36-2.15,1.32,3.1-1.52,3.2-1.26,0,0-1.8.68-1.93.72-1.52.54-3.06,1-4.62,1.38-1.27.31-6.81,1.19-1.94.55,4.86-.64-.21-.06-1.37,0-3.34.17-6.61-.08-9.93-.29-2.65-.17,3.56.31,3.49.48-.03.07-1.97-.35-2.12-.38-1.65-.32-3.28-.69-4.9-1.13-1.39-.37-2.76-.79-4.13-1.25-1.11-.37-6.49-2.52-2.18-.72s-1.08-.64-1.96-1.11c-1.45-.77-2.87-1.58-4.27-2.43s-2.77-1.73-4.11-2.65c-.67-.46-1.34-.93-2-1.4-3.31-2.38-.72-.95.82.7-4.8-5.14-10.65-9.39-15.48-14.59-9.94-10.7-18.64-22.44-27.93-33.68-10.46-12.66-21.77-23.89-35.05-33.61-26.73-19.57-62.94-24.8-93.02-9.98-6.79,3.34-13.14,8.32-18.22,13.9-9.33,10.25-10.88,27.48,0,37.48,10.17,9.34,27.51,10.95,37.48,0,.92-1.02,1.86-2.01,2.87-2.95.5-.46,1.04-.88,1.53-1.34,1.8-1.7-2.59,2.2-2.69,2.09-.02-.02,3.88-2.42,3.99-2.48.59-.32,1.19-.62,1.79-.93,3.4-1.83-2.4,1.31-2.63,1.05.16.18,7.04-2.13,7.81-2.3.67-.14,1.36-.23,2.02-.38,2.46-.56-3.61.5-3.63.47.3.34,4.98-.33,5.54-.34.8-.01,8.29.65,8.4.42-.04.09-6.06-1.01-3.56-.45.69.15,1.39.24,2.08.38,1.61.32,3.21.71,4.79,1.15,1.35.38,2.69.8,4.02,1.26.88.31,1.75.66,2.62.97,2.54.9-3.38-1.2-3.13-1.31,1.38-.58,7.81,4.13,9.11,4.94,1.38.86,2.74,1.76,4.08,2.68.82.57,5.26,3.85,1.9,1.32s1.43,1.27,2.35,2.08c1.44,1.26,2.85,2.55,4.23,3.86,5.19,4.93,10.01,10.23,14.64,15.68,9.1,10.7,17.44,22.02,26.7,32.59,21.41,24.43,48.37,43.07,81.57,45.15,15.28.96,32.41-2.77,45.25-11.33,14.87-9.92,25.24-24.38,30.23-41.55,8.06-27.7,2.37-59.2-8.46-85.37-11.03-26.66-26.99-51.01-48.56-70.4-10.71-9.63-22.52-18.41-35.16-25.34-13.72-7.53-28.52-12.9-43.41-17.6-7.42-2.34-14.86-4.6-22.17-7.28-1.68-.62-3.33-1.3-5.01-1.92-2.76-1.01,2.19.94,2.21.95-.7-.46-1.68-.75-2.45-1.1-3.46-1.59-6.86-3.34-10.11-5.32-1.27-.78-2.52-1.59-3.75-2.43-.85-.58-5.09-3.69-1.53-1.04s-.54-.59-1.33-1.3c-1.29-1.17-2.55-2.38-3.75-3.63s-2.28-2.59-3.44-3.88c-1.85-2.06,1.99,2.64,1.9,2.46-.3-.62-.86-1.22-1.25-1.8-.81-1.21-1.57-2.44-2.28-3.71-.35-.63-.67-1.28-1.02-1.9-1.91-3.4.69,2.29.89,2.42-1.59-.95-2.16-7.3-2.53-8.9-.6-2.59.69,3.5.49,3.49-.06,0-.11-2.02-.11-2.17-.02-.87-.45-4.15.16-4.81.47-.52-1.4,6.59-.48,3.84.2-.59.25-1.28.4-1.89.3-1.24.74-2.44,1.08-3.67,1.08-3.89-3.23,5.98-.4,1.1.75-1.29,1.44-2.59,2.26-3.84.35-.53.77-1.03,1.1-1.57,1.42-2.37-2.25,3.37-2.17,2.83.12-.79,2.04-2.29,2.61-2.87.91-.93,1.92-1.77,2.85-2.68.65-.64,2.73-2.17-.65.41-3.86,2.94-.17.18.5-.28,2.2-1.5,4.51-2.84,6.9-4.02.6-.3,1.22-.55,1.82-.86,2.2-1.11-3.22,1.39-3.24,1.37.23.2,3.95-1.37,4.45-1.52,1.29-.38,2.59-.72,3.9-1.02.87-.2,1.76-.32,2.63-.53,2.52-.6-3.88.41-3.73.46,2.07.73,6.33-.41,8.65-.3,1.08.05,5.85.59,1.31,0s.7.22,1.78.46c3.51.77,6.81,1.98,10.21,3.08,2.69.87-2.98-1.32-2.81-1.22.64.38,1.4.64,2.08.96,1.38.66,2.74,1.36,4.08,2.09,3.15,1.73,6.19,3.66,9.12,5.74.62.44,1.23.98,1.88,1.37.15.09-4.44-3.62-2.3-1.75,1.18,1.02,2.41,1.99,3.58,3.02,2.55,2.25,5,4.61,7.35,7.06s4.62,5.01,6.78,7.63c.49.59.94,1.28,1.48,1.83.14.14-3.43-4.58-1.75-2.27,1.07,1.47,2.16,2.92,3.21,4.4,4.08,5.75,8.83,10.25,15.84,12.18,6.34,1.75,14.79.96,20.42-2.67,11.2-7.22,18.08-24.17,9.51-36.26h0Z"/>
    <path class="cls-1" d="M874.3,673.21c-.09-35.41-25.88-63.5-57.76-75.33-33.15-12.3-71.32-3.13-102.5,10.53-13,5.7-25.48,13.66-35.49,23.78-12.78,12.93-20.14,28.58-22.31,46.52-4.02,33.32,19.38,63.13,45.65,80.47,13.62,8.99,29.58,14.57,45.08,19.36,7.16,2.21,14.37,4.24,21.54,6.42,3.72,1.13,7.43,2.3,11.11,3.56s7.26,3.23,10.91,4.06c-.02,0-4.86-2.19-2.21-.92.81.39,1.64.73,2.45,1.11,1.68.78,3.34,1.6,4.98,2.46,2.89,1.5,5.72,3.12,8.48,4.84,2.55,1.59,5.01,3.32,7.47,5.04,3.84,2.69-4.21-3.46-.59-.5,1.55,1.27,3.1,2.54,4.6,3.86,4.89,4.3,9.46,8.97,13.66,13.94.97,1.14,1.85,2.38,2.85,3.49.17.19-3.48-4.71-1.86-2.38.43.62.89,1.21,1.33,1.82,1.9,2.65,3.69,5.36,5.39,8.14s3.29,5.62,4.77,8.52c.68,1.34,1.34,2.69,1.98,4.05.32.68.61,1.38.93,2.05,1.46,3-2.08-5.31-.91-2.18,2.52,6.76,4.83,13.5,6.21,20.6.14.73.14,2.03.48,2.68-.02-.04-.54-5.53-.34-2.56.12,1.8.33,3.59.39,5.4.07,2.1-.03,4.18-.06,6.28-.01.86-.55,3.82.13.04.73-4.09-.05.08-.21.89-.36,1.76-.8,3.5-1.33,5.21-.07.23-.48,2.07-.73,2.19-.32.15,2.62-5.51,1.31-3.07-.67,1.25-1.26,2.54-1.98,3.77-.36.61-.76,1.21-1.12,1.82-2.27,3.82,3.28-3.68,1.19-1.36-.95,1.06-1.85,2.13-2.86,3.14-.79.78-4.62,3.93-1.03,1.16s-.4.12-1.35.68c-.6.35-1.22.66-1.82,1-3.48,1.96,2.45-1.27,2.52-1.02.05.19-4.55,1.25-4.67,1.28-2.66.76,3.77-.84,3.58-.47-.1.18-2.15.08-2.39.08-.65,0-1.75-.25-2.37-.08.06-.02,5.77,1.18,3.15.41-1.76-.52-3.55-.9-5.31-1.45-4.41-1.37,4.5,2.5.51.1-1.62-.97-3.26-1.86-4.82-2.93-.65-.44-1.29-1.04-1.98-1.41.03.01,4.12,3.56,2.19,1.6-1.32-1.35-2.82-2.53-4.15-3.88-1.16-1.18-2.26-2.41-3.34-3.66-.56-.66-1.09-1.35-1.66-2-1.9-2.16,1.48,1.94,1.48,1.95-1.77-3.47-4.76-6.69-6.94-9.97-8.71-13.1-17.56-26.24-29.16-37s-24-19.45-37.91-25.73c-31.3-14.13-77.31-24.07-102.89,6.27-8.11,9.62-11.85,19.43-13.24,31.81-.71,6.31,3.47,14.44,7.76,18.74,4.6,4.6,12.14,8.06,18.74,7.76s13.96-2.56,18.74-7.76c5.05-5.5,6.94-11.36,7.76-18.74l-.53,4.19c.2-.93.47-1.85.79-2.75l-1.55,3.7c.43-.86.91-1.69,1.43-2.49l-2.43,3.03c.62-.75,1.27-1.48,1.96-2.16l1.06-1.01c2.09-1.78,1.46-1.31-1.9,1.41.44-.05,3.53-1.88,3.81-2.23l-3.65,1.49c1.12-.43,2.25-.81,3.4-1.13l1.73-.45c2.91-.56,2.32-.54-1.76.05.08-.45,6.56-.31,7.18-.3,1.82.04,3.61.22,5.42.33,6.3.39-6.03-1.24.12.07,3.07.65,6.15,1.23,9.19,2.04s6.03,1.73,8.99,2.77c1.48.52,2.94,1.1,4.41,1.65,2.61,1.06,1.94.78-1.99-.85.96.42,1.91.86,2.85,1.31,5.67,2.69,11.13,5.83,16.31,9.36.86.59,1.72,1.19,2.57,1.8l1.27.93c2.22,1.67,1.68,1.25-1.64-1.27,1.84,2.68,5.86,4.95,8.24,7.25,2.26,2.18,4.43,4.45,6.5,6.8,1.04,1.18,2.02,2.4,3.04,3.59,3.68,4.33-3.57-5.12-.12-.12,4.27,6.2,8.38,12.51,12.65,18.71,9.69,14.09,21.06,28.01,36.74,35.72,18.09,8.89,37.47,9.84,55.79,1.04,15.67-7.53,26.67-22.2,32.76-38.1,6.33-16.55,5.44-35.29,1.64-52.3-6.28-28.08-22.38-54.83-43.01-74.71-22.22-21.42-49.19-33.52-78.45-42.25-6.89-2.06-13.81-4.02-20.67-6.19-3.42-1.08-6.83-2.21-10.2-3.43-1.12-.41-2.24-.82-3.36-1.25-1.12-.43-2.23-.86-3.33-1.31,3.57,1.53,4.03,1.72,1.39.57-5.64-2.67-11.1-5.5-16.23-9.07-2.21-1.53-3.63-4.3.48.51-.93-1.08-2.42-1.98-3.5-2.93-2.64-2.33-5.15-4.83-7.48-7.48-1.77-2.02-2.49-5.03.39.73-.63-1.25-1.76-2.44-2.53-3.63-1.52-2.34-2.52-5.48-4.23-7.61l1.53,3.7c-.36-.88-.69-1.77-.99-2.67-.46-1.34-.86-2.7-1.2-4.08s-.44-2.83-.84-4.16c.57,4.71.74,5.65.5,2.82-.05-.95-.08-1.9-.07-2.85.01-1.39.36-2.95.25-4.32.51,6.27-.69,4.41.05,1.37.27-1.13.6-2.24.96-3.35.83-2.53,2.44-3.35-.93,1.84,1.48-2.28,2.47-4.89,4-7.17l.78-1.13c1.61-2.19,1.06-1.5-1.63,2.08,1.37-1.12,2.48-2.86,3.74-4.13.99-1,2.02-1.97,3.07-2.91.71-.63,1.42-1.25,2.15-1.86,2.13-1.71,1.46-1.22-1.98,1.49,2.93-1.58,5.58-3.9,8.47-5.6s5.97-3.33,9.06-4.8c1.3-.62,2.73-1.12,3.99-1.82-7.24,3.98-1.68.73.38-.04,7.72-2.89,15.66-5.28,23.72-7,1.78-.38,3.58-.73,5.37-1.04,1.2-.21,2.39-.39,3.6-.57l-3.44.49c.5-1.17,11.17-.67,12.62-.66,1.8.02,3.59.09,5.38.21,1.19.08,2.38.19,3.57.32-4.08-.59-4.65-.65-1.72-.17,3.9.87,7.67,1.85,11.5,3.01,5.13,1.56-5.76-2.91-.96-.46,1.74.88,3.48,1.72,5.17,2.7,1.26.73,2.5,1.51,3.71,2.33.81.55,1.6,1.11,2.38,1.69-3.42-2.69-4.06-3.16-1.95-1.42,2.49,2.33,4.84,4.66,7.13,7.19,3.55,3.94-3.41-5.31-.69-.79.98,1.63,2.04,3.19,2.93,4.87,1.41,2.67.83,4.91-.31-1.2.33,1.78,1.27,3.58,1.73,5.35.34,1.35.45,2.83.85,4.14-.57-4.71-.74-5.65-.51-2.81.05.96.07,1.91.06,2.87.03,13.86,12.16,27.14,26.5,26.5,14.33-.64,26.54-11.64,26.5-26.5h0Z"/>
  </g>
</svg>